<?xml version="1.0" standalone="no"?>
<!DOCTYPE svg PUBLIC "-//W3C//DTD SVG 1.1//EN" "http://www.w3.org/Graphics/SVG/1.1/DTD/svg11.dtd" >
<svg xmlns="http://www.w3.org/2000/svg">
<metadata>Generated by IcoMoon</metadata>
<defs>
<font id="icomoon" horiz-adv-x="1024">
<font-face units-per-em="1024" ascent="960" descent="-64" />
<missing-glyph horiz-adv-x="1024" />
<glyph unicode="&#x20;" horiz-adv-x="512" d="" />
<glyph unicode="&#xe900;" glyph-name="info" d="M512 207.36c-29.44 0-53.76 24.32-53.76 53.76v208.64c0 29.44 24.32 53.76 53.76 53.76s53.76-24.32 53.76-53.76v-208.64c0-29.44-24.32-53.76-53.76-53.76zM512 561.92c-35.84 0-62.72 26.88-62.72 62.72s26.88 62.72 62.72 62.72c34.56 0 62.72-28.16 62.72-62.72 0-35.84-26.88-62.72-62.72-62.72zM512-64c-282.88 0-512 229.12-512 512s229.12 512 512 512c282.88 0 512-229.12 512-512s-229.12-512-512-512zM512 889.6c-243.2 0-441.6-198.4-441.6-441.6s198.4-441.6 441.6-441.6 441.6 198.4 441.6 441.6-198.4 441.6-441.6 441.6z" />
<glyph unicode="&#xe901;" glyph-name="next" d="M328.96 942.080c-23.040 23.040-61.44 23.040-85.76 0-23.040-23.040-23.040-61.44 0-85.76l409.6-409.6-409.6-408.32c-23.040-23.040-23.040-61.44 0-85.76 23.040-23.040 61.44-23.040 85.76 0l451.84 453.12c11.52 11.52 17.92 26.88 17.92 42.24s-6.4 30.72-17.92 42.24l-451.84 451.84z" />
<glyph unicode="&#xe902;" glyph-name="phone" d="M161.28 957.44c-7.68 1.28-15.36 1.28-21.76-1.28-75.52-29.44-124.16-138.24-135.68-213.76-35.84-243.2 157.44-454.4 334.080-593.92 157.44-122.88 459.52-325.12 637.44-129.28 23.040 24.32 49.92 58.88 48.64 94.72-3.84 58.88-58.88 102.4-102.4 134.4-32 24.32-101.12 90.88-143.36 89.6-38.4-1.28-62.72-40.96-85.76-65.28l-42.24-42.24c-7.68-7.68-97.28 52.48-107.52 58.88-37.12 24.32-71.68 51.2-103.68 80.64-30.72 29.44-58.88 62.72-83.2 96-7.68 10.24-65.28 96-58.88 103.68 0 0 49.92 53.76 64 75.52 29.44 44.8 52.48 80.64 17.92 134.4-12.8 19.2-28.16 35.84-44.8 52.48-29.44 28.16-58.88 57.6-93.44 81.92-19.2 14.080-51.2 39.68-79.36 43.52z" />
<glyph unicode="&#xe903;" glyph-name="prev-circle" d="M546.56 320c6.4-6.4 15.36-6.4 21.76 0s6.4 15.36 0 21.76l-104.96 106.24 106.24 106.24c6.4 6.4 6.4 15.36 0 21.76s-15.36 6.4-21.76 0l-117.76-117.76c-2.56-2.56-5.12-6.4-5.12-11.52 0-3.84 1.28-7.68 5.12-11.52l116.48-115.2zM512-64c282.88 0 512 229.12 512 512s-229.12 512-512 512-512-229.12-512-512 229.12-512 512-512zM512 910.080c254.72 0 462.080-207.36 462.080-462.080s-207.36-462.080-462.080-462.080-462.080 207.36-462.080 462.080 207.36 462.080 462.080 462.080z" />
<glyph unicode="&#xe904;" glyph-name="prev" d="M695.040-46.080c23.040-23.040 61.44-23.040 85.76 0 23.040 23.040 23.040 61.44 0 85.76l-409.6 408.32 409.6 409.6c23.040 23.040 23.040 61.44 0 85.76-23.040 23.040-61.44 23.040-85.76 0l-451.84-453.12c-11.52-11.52-17.92-26.88-17.92-42.24s6.4-30.72 17.92-42.24l451.84-451.84z" />
<glyph unicode="&#xe905;" glyph-name="artist-young" d="M510.72 963.84c-282.88 0-512-229.12-512-512s229.12-512 512-512c282.88 0 512 229.12 512 512s-230.4 512-512 512zM510.72-25.6c-263.68 0-477.44 213.76-477.44 477.44s213.76 477.44 477.44 477.44 477.44-213.76 477.44-477.44c0-263.68-215.040-477.44-477.44-477.44zM234.24 522.24l21.76 5.12c1.28-10.24 6.4-14.080 14.080-15.36 5.12 0 8.96 1.28 11.52 5.12 2.56 2.56 3.84 7.68 3.84 15.36v78.080h21.76v-75.52c0-15.36-2.56-25.6-8.96-32s-15.36-10.24-28.16-10.24c-10.24 0-17.92 2.56-24.32 7.68s-10.24 11.52-11.52 21.76zM346.88 492.8v116.48h72.96v-20.48h-51.2v-24.32h40.96v-20.48h-40.96v-32h52.48v-20.48h-74.24zM450.56 537.6v72.96h21.76v-72.96c0-16.64 7.68-25.6 21.76-25.6v0c14.080 0 21.76 8.96 21.76 25.6v72.96h21.76v-72.96c0-15.36-3.84-26.88-11.52-34.56s-17.92-11.52-32-11.52c-12.8 0-24.32 3.84-32 11.52s-11.52 19.2-11.52 34.56zM576 492.8v116.48h23.040l43.52-76.8v76.8h21.76v-116.48h-24.32l-43.52 76.8v-76.8h-20.48zM705.28 492.8v116.48h72.96v-20.48h-51.2v-24.32h40.96v-20.48h-40.96v-32h52.48v-20.48h-74.24zM190.72 389.12v20.48h87.040v-20.48h-32v-97.28h-21.76v97.28h-33.28zM290.56 293.12l39.68 116.48h21.76l39.68-116.48h-23.040l-8.96 26.88h-37.12l-8.96-28.16h-23.040zM328.96 340.48h24.32l-12.8 40.96-11.52-40.96zM419.84 293.12v116.48h21.76v-97.28h49.92v-20.48h-71.68zM519.68 293.12v116.48h72.96v-20.48h-51.2v-24.32h40.96v-20.48h-40.96v-32h52.48v-20.48h-74.24zM627.2 293.12v116.48h23.040l43.52-76.8v76.8h21.76v-116.48h-23.040l-43.52 76.8v-76.8h-21.76zM743.68 389.12v20.48h87.040v-20.48h-32v-97.28h-21.76v97.28h-33.28z" />
<glyph unicode="&#xe906;" glyph-name="artwork-staffpick" d="M494.080 958.72c-282.88 0-512-229.12-512-512s229.12-512 512-512c282.88 0 512 229.12 512 512s-229.12 512-512 512zM494.080-29.44c-263.68 0-477.44 213.76-477.44 477.44s213.76 477.44 477.44 477.44 477.44-213.76 477.44-477.44c0-263.68-213.76-477.44-477.44-477.44zM375.040 679.68h140.8l152.32-405.76c0 0 19.2-49.92 52.48-56.32h-180.48c0 0 44.8 6.4 29.44 49.92-14.080 43.52-136.96 373.76-140.8 380.16-2.56 7.68-21.76 33.28-53.76 32zM355.84 258.56c0-24.035-19.485-43.52-43.52-43.52s-43.52 19.485-43.52 43.52c0 24.035 19.485 43.52 43.52 43.52s43.52-19.485 43.52-43.52z" />
<glyph unicode="&#xe907;" glyph-name="cart" d="M952.32 57.6l-75.52 609.28c-1.28 11.52-11.52 19.2-23.040 19.2h-160v61.44c0 125.44-70.4 212.48-176.64 212.48s-175.36-84.48-175.36-213.76v-61.44h-171.52c-11.52 0-19.2-7.68-23.040-19.2l-75.52-608c-5.12-30.72 6.4-64 25.6-84.48 19.2-24.32 51.2-37.12 81.92-37.12h661.76c30.72 0 61.44 12.8 81.92 37.12 23.040 21.76 33.28 53.76 29.44 84.48zM387.84 744.96c0 78.080 35.84 170.24 131.84 170.24s131.84-89.6 131.84-170.24v-61.44h-263.68v61.44zM892.16 1.28c-12.8-12.8-30.72-23.040-48.64-23.040h-663.040c-19.2 0-37.12 7.68-48.64 23.040-11.52 12.8-17.92 33.28-16.64 52.48l75.52 586.24h646.4l71.68-588.8c1.28-17.92-5.12-37.12-16.64-49.92z" />
<glyph unicode="&#xe908;" glyph-name="follow-ok" d="M512 960c-282.88 0-512-229.12-512-512s229.12-512 512-512 512 229.12 512 512-229.12 512-512 512zM746.24 556.8c-40.96-43.52-87.040-93.44-131.84-143.36s-92.16-101.12-134.4-145.92c-10.24-10.24-23.040-15.36-37.12-15.36-10.24 0-21.76 3.84-30.72 10.24l-129.28 98.56c-23.040 17.92-26.88 49.92-10.24 72.96 8.96 10.24 20.48 17.92 34.56 19.2s26.88-2.56 38.4-10.24l92.16-70.4c33.28 34.56 66.56 72.96 101.12 110.080 44.8 49.92 92.16 101.12 134.4 145.92 8.96 8.96 20.48 15.36 34.56 16.64v0c14.080 1.28 29.44-5.12 39.68-15.36s15.36-23.040 15.36-35.84c-1.28-15.36-6.4-28.16-16.64-37.12z" />
<glyph unicode="&#xe909;" glyph-name="follow" d="M688.64 495.36h-129.28v129.28c0 25.6-21.76 47.36-47.36 47.36s-47.36-21.76-47.36-47.36v-129.28h-129.28c-25.6 0-47.36-21.76-47.36-47.36s21.76-47.36 47.36-47.36h129.28v-129.28c0-25.6 21.76-47.36 47.36-47.36s47.36 21.76 47.36 47.36v129.28h129.28c25.6 0 47.36 21.76 47.36 47.36s-21.76 47.36-47.36 47.36zM512 960c-282.88 0-512-229.12-512-512s229.12-512 512-512 512 229.12 512 512-229.12 512-512 512zM512 11.52c-240.64 0-436.48 195.84-436.48 436.48s195.84 436.48 436.48 436.48 436.48-195.84 436.48-436.48-195.84-436.48-436.48-436.48z" />
<glyph unicode="&#xe90a;" glyph-name="profile" d="M510.72 376.32c-312.32 0-483.84-145.92-483.84-413.44v-26.88h970.24v26.88c-2.56 266.24-174.080 413.44-486.4 413.44zM510.72 418.56c133.12 0 241.92 126.72 241.92 280.32 0 149.76-103.68 261.12-241.92 261.12s-241.92-111.36-241.92-262.4c0-154.88 108.8-279.040 241.92-279.040z" />
<glyph unicode="&#xe90b;" glyph-name="artist-master" d="M512 960c-282.88 0-512-229.12-512-512s229.12-512 512-512c282.88 0 512 229.12 512 512s-229.12 512-512 512zM512-29.44c-263.68 0-477.44 213.76-477.44 477.44s213.76 477.44 477.44 477.44 477.44-213.76 477.44-477.44c0-263.68-213.76-477.44-477.44-477.44zM512 728.32c-154.88 0-280.32-125.44-280.32-280.32s125.44-280.32 280.32-280.32 280.32 125.44 280.32 280.32-125.44 280.32-280.32 280.32zM583.68 623.36h-143.36c20.48 43.52 46.080 70.4 71.68 70.4 24.32-1.28 51.2-26.88 71.68-70.4zM590.080 679.68c34.56-11.52 66.56-32 92.16-56.32h-61.44c-8.96 21.76-19.2 40.96-30.72 56.32zM407.040 465.92c1.28 46.080 8.96 88.32 20.48 122.88h168.96c11.52-34.56 17.92-76.8 20.48-122.88h-209.92zM616.96 430.080c-1.28-46.080-8.96-88.32-20.48-122.88h-168.96c-11.52 34.56-17.92 76.8-20.48 122.88h209.92zM403.2 623.36h-61.44c25.6 25.6 57.6 44.8 92.16 56.32-11.52-15.36-21.76-34.56-30.72-56.32zM390.4 587.52c-10.24-35.84-16.64-78.080-17.92-122.88h-104.96c3.84 44.8 19.2 87.040 43.52 122.88h79.36zM372.48 430.080c1.28-44.8 7.68-85.76 17.92-122.88h-79.36c-24.32 34.56-39.68 76.8-43.52 122.88h104.96zM403.2 272.64c8.96-21.76 19.2-40.96 30.72-56.32-34.56 11.52-66.56 32-92.16 56.32h61.44zM440.32 272.64h142.080c-20.48-43.52-46.080-70.4-71.68-70.4s-49.92 26.88-70.4 70.4zM620.8 272.64h61.44c-25.6-25.6-57.6-44.8-92.16-56.32 11.52 15.36 21.76 34.56 30.72 56.32zM633.6 308.48c10.24 35.84 16.64 78.080 17.92 122.88h104.96c-3.84-44.8-19.2-87.040-43.52-122.88h-79.36zM651.52 465.92c-1.28 44.8-7.68 85.76-17.92 122.88h79.36c24.32-34.56 39.68-76.8 43.52-122.88h-104.96z" />
<glyph unicode="&#xe90c;" glyph-name="artwork-authenticate" d="M701.44 538.88c0 111.36-97.28 200.96-211.2 188.16-88.32-10.24-158.72-81.92-166.4-170.24-6.4-69.12 24.32-131.84 75.52-168.96l-44.8-124.16c-2.56-5.12 3.84-10.24 8.96-8.96l60.16 20.48c3.84 1.28 6.4 0 8.96-3.84l29.44-53.76c2.56-5.12 10.24-5.12 12.8 1.28l35.84 98.56 53.76-145.92c2.56-5.12 10.24-6.4 12.8-1.28l29.44 53.76c1.28 2.56 5.12 3.84 8.96 2.56l58.88-20.48c5.12-2.56 10.24 3.84 8.96 8.96l-64 168.96c49.92 34.56 81.92 90.88 81.92 154.88zM467.2 286.72c-2.56-5.12-10.24-6.4-12.8-1.28l-11.52 20.48c-1.28 2.56-5.12 3.84-8.96 2.56l-26.88-8.96c-5.12-2.56-10.24 3.84-8.96 8.96l23.040 64c20.48-11.52 43.52-17.92 67.84-21.76l-21.76-64zM634.88 261.12c2.56-5.12-3.84-10.24-8.96-8.96l-26.88 8.96c-2.56 1.28-6.4 0-8.96-2.56l-11.52-20.48c-2.56-5.12-10.24-5.12-12.8 1.28l-40.96 111.36c24.32 1.28 47.36 8.96 69.12 19.2l40.96-108.8zM499.2 378.88c-78.080 5.12-142.080 69.12-148.48 147.2-7.68 99.84 74.24 181.76 174.080 174.080 78.080-6.4 142.080-69.12 147.2-147.2 8.96-99.84-74.24-183.040-172.8-174.080zM599.040 606.72l-11.52 7.68c-3.84 2.56-7.68 1.28-8.96-2.56l-79.36-126.72-53.76 56.32c-2.56 2.56-6.4 2.56-10.24 0l-10.24-8.96c-2.56-2.56-2.56-6.4 0-10.24l71.68-76.8c2.56-3.84 8.96-2.56 11.52 1.28l93.44 149.76c1.28 3.84 0 7.68-2.56 10.24zM512 960c-282.88 0-512-229.12-512-512s229.12-512 512-512c282.88 0 512 229.12 512 512s-229.12 512-512 512zM512-29.44c-263.68 0-477.44 213.76-477.44 477.44s213.76 477.44 477.44 477.44 477.44-213.76 477.44-477.44c0-263.68-213.76-477.44-477.44-477.44z" />
<glyph unicode="&#xe90d;" glyph-name="artwork-number" d="M512 960c-282.88 0-512-229.12-512-512s229.12-512 512-512c282.88 0 512 229.12 512 512s-229.12 512-512 512zM512-29.44c-263.68 0-477.44 213.76-477.44 477.44s213.76 477.44 477.44 477.44 477.44-213.76 477.44-477.44c0-263.68-213.76-477.44-477.44-477.44zM138.24 476.16v39.68l60.16 35.84h16.64v-206.080h-35.84v153.6l-40.96-23.040zM243.2 330.24l129.28 235.52h35.84l-129.28-235.52h-35.84zM423.68 476.16v39.68l60.16 35.84h16.64v-206.080h-37.12v153.6l-39.68-23.040zM563.2 371.2c-12.8 19.2-19.2 44.8-19.2 76.8s6.4 58.88 19.2 76.8c12.8 19.2 32 28.16 56.32 28.16s43.52-8.96 56.32-28.16c12.8-19.2 19.2-44.8 19.2-76.8 0-33.28-6.4-58.88-19.2-76.8s-32-28.16-56.32-28.16c-24.32-1.28-42.24 8.96-56.32 28.16zM620.8 518.4c-26.88 0-39.68-23.040-39.68-70.4s12.8-70.4 39.68-70.4c26.88 0 39.68 23.040 39.68 70.4s-14.080 70.4-39.68 70.4zM752.64 371.2c-12.8 19.2-19.2 44.8-19.2 76.8s6.4 58.88 19.2 76.8c12.8 19.2 32 28.16 56.32 28.16s43.52-8.96 56.32-28.16c12.8-19.2 19.2-44.8 19.2-76.8 0-33.28-6.4-58.88-19.2-76.8s-32-28.16-56.32-28.16c-24.32-1.28-43.52 8.96-56.32 28.16zM808.96 518.4c-26.88 0-39.68-23.040-39.68-70.4s12.8-70.4 39.68-70.4c26.88 0 39.68 23.040 39.68 70.4s-12.8 70.4-39.68 70.4z" />
<glyph unicode="&#xe90e;" glyph-name="artwork-signed" d="M512 960c-282.88 0-512-229.12-512-512s229.12-512 512-512c282.88 0 512 229.12 512 512s-229.12 512-512 512zM512-29.44c-263.68 0-477.44 213.76-477.44 477.44s213.76 477.44 477.44 477.44 477.44-213.76 477.44-477.44c0-263.68-213.76-477.44-477.44-477.44zM337.92 727.836c-6.4-1.28-11.52-8.96-10.24-15.36 19.2-102.4 24.32-203.52-6.4-282.88-1.28-5.12 0-10.24 3.84-14.080l162.56-149.76-5.12-3.84c-6.4-3.84-7.68-11.52-3.84-17.92l44.8-76.8c3.84-6.4 11.52-7.68 17.92-5.12 0 0 0 0 0 0l174.080 103.68c6.4 3.84 7.68 11.52 3.84 17.92 0 0 0 0 0 0l-44.8 76.8c-2.56 5.12-7.68 7.68-12.8 6.4-1.28 0-3.84-1.28-5.12-1.28l-3.84-2.56-47.36 213.76c-1.28 5.12-5.12 8.96-10.24 10.24-85.76 12.8-167.68 67.84-244.48 138.24-3.84 2.56-8.96 2.56-12.8 2.56zM358.4 683.036c67.84-58.88 142.080-106.24 222.72-120.32l47.36-213.76-117.76-70.4-161.28 149.76c25.6 76.8 23.040 165.12 8.96 254.72zM469.76 540.956c-32 0-57.6-25.6-57.6-57.6s25.6-57.6 57.6-57.6c0 0 0 0 0 0 32 0 57.6 25.6 57.6 57.6s-25.6 57.6-57.6 57.6zM469.76 515.356c17.92 0 32-14.080 32-32s-14.080-32-32-32c-17.92 0-32 14.080-32 32-1.28 17.92 14.080 32 32 32zM657.92 336.156l32-55.040-152.32-89.6-32 55.040 152.32 89.6z" />
<glyph unicode="&#xe90f;" glyph-name="next-circle" d="M477.44 576c-6.4 6.4-15.36 6.4-21.76 0s-6.4-15.36 0-21.76l106.24-106.24-106.24-106.24c-6.4-6.4-6.4-15.36 0-21.76s15.36-6.4 21.76 0l117.76 117.76c2.56 2.56 5.12 6.4 5.12 11.52 0 3.84-1.28 7.68-5.12 11.52l-117.76 115.2zM512 960c-282.88 0-512-229.12-512-512s229.12-512 512-512 512 229.12 512 512-229.12 512-512 512zM512-14.080c-254.72 0-462.080 207.36-462.080 462.080s207.36 462.080 462.080 462.080 462.080-207.36 462.080-462.080-207.36-462.080-462.080-462.080z" />
<glyph unicode="&#xe910;" glyph-name="pack" d="M750.080 543.232l-41.856 81.024c-2.115 4.326-6.484 7.252-11.535 7.252-1.994 0-3.882-0.456-5.565-1.27l0.076 0.033-123.008-52.224c-4.573-2.020-7.706-6.515-7.706-11.743 0-1.718 0.339-3.358 0.953-4.855l-0.031 0.085 34.048-79.744c1.996-4.631 6.52-7.813 11.789-7.813 0.131 0 0.261 0.002 0.39 0.006h-0.019c0.012 0 0.025 0 0.039 0 1.735 0 3.394 0.329 4.916 0.928l-0.091-0.032 130.816 51.2c3.41 1.3 6.067 3.916 7.393 7.21l0.031 0.086c0.441 1.241 0.696 2.672 0.696 4.163 0 2.074-0.493 4.034-1.369 5.766l0.034-0.073zM614.4 503.168l-24.192 56.576 100.096 41.856 29.952-57.984zM338.176 203.008c-0.902 1.856-1.969 3.456-3.222 4.89l0.022-0.026-1.024 1.152c-1.207 1.292-2.55 2.431-4.013 3.404l-0.083 0.052c-1.471 0.907-3.166 1.689-4.956 2.259l-0.164 0.045h-1.408c-1.515 0.421-3.269 0.697-5.076 0.767l-0.044 0.001h-5.376c-1.708-0.357-3.206-0.843-4.63-1.466l0.15 0.058-26.752-11.264-146.944-63.104c-8.053-3.186-13.646-10.905-13.646-19.929 0-5.422 2.019-10.373 5.346-14.142l-0.020 0.023 1.024-1.152c1.207-1.292 2.55-2.431 4.013-3.404l0.083-0.052c1.47-0.905 3.166-1.687 4.955-2.259l0.165-0.045h1.408c1.515-0.42 3.269-0.695 5.075-0.767l0.045-0.001h5.248c1.708 0.357 3.206 0.843 4.63 1.466l-0.15-0.058 173.312 75.136c8.067 3.305 13.646 11.096 13.646 20.191 0 2.966-0.593 5.793-1.668 8.369l0.053-0.144zM1.92 280.32c0.902-1.856 1.969-3.456 3.222-4.89l-0.022 0.026 1.024-1.152c1.207-1.292 2.55-2.431 4.013-3.404l0.083-0.052c1.471-0.907 3.166-1.689 4.956-2.259l0.164-0.045h1.408c1.515-0.421 3.269-0.697 5.076-0.767l0.044-0.001h5.376c1.763 0.196 3.367 0.556 4.9 1.072l-0.164-0.048 162.432 69.12c7.46 3.496 12.582 10.852 12.799 19.428l0.001 0.028c0.076 0.691 0.119 1.492 0.119 2.304s-0.043 1.613-0.127 2.402l0.008-0.098c-0.353 1.788-0.884 3.373-1.589 4.86l0.053-0.124c-0.902 1.856-1.969 3.456-3.222 4.89l0.022-0.026c-4.44 4.79-10.664 7.874-17.608 8.19l-0.056 0.002c-3.334-0.007-6.501-0.713-9.365-1.979l0.149 0.059-162.048-68.48c-8.017-3.328-13.553-11.094-13.553-20.153 0-3.225 0.702-6.286 1.96-9.039l-0.056 0.136zM176.896 271.36v0c-8.053-3.186-13.646-10.905-13.646-19.929 0-5.422 2.019-10.373 5.346-14.142l-0.020 0.023 1.024-1.152c1.207-1.292 2.55-2.431 4.013-3.404l0.083-0.052c1.582-0.936 3.411-1.722 5.341-2.265l0.163-0.039h1.408c1.515-0.421 3.269-0.697 5.076-0.767l0.044-0.001h5.376c1.708 0.357 3.206 0.843 4.63 1.466l-0.15-0.058h1.152l79.488 34.048c8.053 3.186 13.646 10.905 13.646 19.929 0 5.422-2.019 10.373-5.346 14.142l0.020-0.023-1.024 1.152c-1.207 1.292-2.55 2.431-4.013 3.404l-0.083 0.052c-1.471 0.907-3.166 1.689-4.956 2.259l-0.164 0.045h-1.408c-1.515 0.421-3.269 0.697-5.076 0.767l-0.044 0.001h-5.376c-1.708-0.357-3.206-0.843-4.63-1.466l0.15 0.058-80.128-34.304zM337.152-14.336c-0.102-0.001-0.223-0.002-0.344-0.002-10.171 0-18.996 5.758-23.395 14.192l-0.069 0.146-57.344 119.168 48 20.608 46.208-96.128 571.392 217.088-197.504 409.6-570.496-215.168 24.576-51.2c-4.646-1.163-8.611-2.522-12.424-4.168l0.52 0.2-36.096-16-35.2 73.984c-0.596 1.273-1.163 2.804-1.61 4.385l-0.054 0.223v1.408c-0.036 0.498-0.057 1.078-0.057 1.664s0.021 1.166 0.061 1.741l-0.004-0.077v1.28c-0.059 0.652-0.093 1.41-0.093 2.176s0.034 1.524 0.1 2.273l-0.007-0.097c0.344 1.725 0.742 3.184 1.227 4.604l-0.075-0.252 1.152 2.816 76.8 153.6c2.797 5.822 7.554 10.33 13.398 12.738l0.17 0.062 580.992 233.984c2.243 0.672 4.82 1.059 7.488 1.059s5.245-0.387 7.679-1.107l-0.191 0.049 3.456-1.152h1.024c5.567-2.539 9.997-6.763 12.73-12.013l0.070-0.147 222.208-454.528c1.579-3.173 2.504-6.912 2.504-10.866 0-2.095-0.259-4.13-0.748-6.073l0.036 0.171-37.632-152.704v-0.768c-0.429-1.507-0.909-2.782-1.477-4.007l0.069 0.167c-0.749-1.573-1.474-2.873-2.269-4.124l0.093 0.156-1.024-1.408-1.92-2.176-1.28-1.28-3.2-2.816c-3.759-3.065-8.44-5.135-13.57-5.748l-0.126-0.012h-0.896l-613.248-233.984c-2.673-0.978-5.759-1.543-8.977-1.543-0.219 0-0.438 0.003-0.656 0.008l0.032-0.001zM764.928 705.28l185.728-385.28 19.328 78.72-186.752 381.184zM214.528 602.88l-43.264-87.040 543.616 204.8 22.656 92.16z" />
<glyph unicode="&#xe911;" glyph-name="payment" d="M1024 563.2c0 0.115 0 0.25 0 0.386 0 115.055-93.016 208.385-207.952 208.894h-0.048c-60.52-0.087-114.932-26.167-152.682-67.672l-0.15-0.168v6.656c0 0.156 0.001 0.341 0.001 0.527 0 137.073-111.119 248.192-248.192 248.192-0.945 0-1.889-0.005-2.832-0.016l0.143 0.001c-0.799 0.009-1.743 0.015-2.689 0.015-137.073 0-248.192-111.119-248.192-248.192 0-0.185 0-0.37 0.001-0.555v0.028-119.040h-86.144c-41.629-0.29-75.264-34.104-75.264-75.774 0-0.001 0-0.001 0-0.002v0-504.704c0-0.001 0-0.001 0-0.002 0-41.67 33.635-75.484 75.236-75.774h673.948c41.629 0.29 75.264 34.104 75.264 75.774 0 0.001 0 0.001 0 0.002v0 342.4c111.279 5.137 199.552 96.603 199.552 208.687 0 0.118 0 0.237 0 0.355v-0.018zM225.92 707.072c-0.009 0.671-0.014 1.463-0.014 2.257 0 99.685 78.372 181.066 176.862 185.886l0.432 0.017c3.072 0 6.016 0 8.96 0s6.016 0 8.96 0c98.979-4.77 177.422-86.179 177.422-185.909 0-0.791-0.005-1.582-0.015-2.371l0.001 0.12v-115.2h-372.608zM749.184 0.896h-673.92c-0.153-0.008-0.333-0.012-0.513-0.012-5.938 0-10.752 4.814-10.752 10.752 0 0.049 0 0.099 0.001 0.148v-0.007 504.704c0 0.038-0.001 0.083-0.001 0.128 0 5.938 4.814 10.752 10.752 10.752 0 0 0.001 0 0.001 0h536.448c14.093-79.837 71.843-143.272 147.256-165.388l1.48-0.372v-349.824c0-0.038 0.001-0.083 0.001-0.128 0-5.938-4.814-10.752-10.752-10.752 0 0-0.001 0-0.001 0v0zM816 412.16c-0.304-0.002-0.664-0.003-1.024-0.003-83.346 0-150.912 67.566-150.912 150.912s67.566 150.912 150.912 150.912c83.3 0 150.837-67.491 150.912-150.773v-0.007c0-0.114 0-0.25 0-0.385 0-82.909-67.030-150.163-149.854-150.527h-0.035zM888.96 631.296l-1.792-1.92-92.8-93.312-46.464 47.488c-3.406 3.409-8.113 5.518-13.312 5.518s-9.906-2.109-13.312-5.518v0c-3.424-3.447-5.54-8.196-5.54-13.44s2.116-9.993 5.541-13.441l-0.001 0.001 59.52-60.928 1.792-1.408 1.152-0.896 2.048-1.152 1.28-0.64 2.432-0.768h1.152c1.078-0.219 2.316-0.344 3.584-0.344s2.506 0.125 3.704 0.364l-0.12-0.020h1.152l2.432 0.64 1.28 0.64 1.92 1.024 1.152 0.896 1.792 1.408 106.624 107.136c3.954 3.511 6.433 8.607 6.433 14.283 0 4.778-1.757 9.146-4.661 12.493l0.020-0.024c-3.475 4.133-8.648 6.741-14.431 6.741-4.843 0-9.259-1.83-12.594-4.836l0.017 0.015zM412.16 326.016c3.239-0.005 6.366-0.473 9.323-1.339l-0.235 0.059c10.336-3.1 18.264-11.197 21.069-21.416l0.051-0.216c0.736-2.543 1.159-5.464 1.159-8.483 0-8.055-3.012-15.406-7.972-20.989l0.028 0.032c-2.762-3.334-4.437-7.656-4.437-12.368 0-1.699 0.218-3.348 0.627-4.919l-0.030 0.135 21.632-95.744h-83.456l21.632 96.256c0.414 1.533 0.651 3.293 0.651 5.108 0 4.701-1.594 9.029-4.27 12.474l0.034-0.046c-4.321 5.346-6.936 12.225-6.936 19.716 0 17.219 13.821 31.21 30.975 31.484h0.026zM412.032 364.16c-38.777-0.23-70.123-31.718-70.123-70.527 0-13.428 3.753-25.98 10.267-36.664l-0.176 0.311-19.2-87.936c-0.613-2.596-0.965-5.576-0.965-8.639 0-9.255 3.21-17.76 8.577-24.462l-0.060 0.078c7.094-8.997 17.993-14.72 30.23-14.72 0.037 0 0.075 0 0.112 0h83.322c0.032 0 0.069 0 0.106 0 12.236 0 23.136 5.723 30.168 14.639l0.062 0.081c5.307 6.625 8.517 15.13 8.517 24.385 0 3.063-0.352 6.043-1.016 8.903l0.052-0.264-19.712 87.552c6.812 10.756 10.856 23.851 10.856 37.89 0 6.368-0.832 12.541-2.393 18.417l0.113-0.5c-6.688 24.938-26.121 44.116-50.715 50.328l-0.485 0.104c-4.946 1.22-10.623 1.92-16.464 1.92-0.017 0-0.033 0-0.050 0h0.003z" />
<glyph unicode="&#xe912;" glyph-name="price" d="M641.28 959.516c-238.080 0-439.040-163.84-495.36-384h-113.92c-17.92 0-32-14.080-32-32s14.080-32 32-32h101.12c-2.56-20.48-5.12-42.24-5.12-64 0-33.28 2.56-65.28 8.96-96h-104.96c-17.92 0-32-14.080-32-32s14.080-32 32-32h121.6c67.84-204.8 259.84-352 486.4-352 165.12 0 275.2 71.68 373.76 170.24 12.8 12.8 12.8 33.28 0 46.080s-33.28 12.8-46.080 0c-93.44-93.44-179.2-151.040-327.68-151.040-192 0-354.56 119.040-418.56 288h449.28c17.92 0 32 14.080 32 32s-14.080 32-32 32h-468.48c-6.4 30.72-10.24 62.72-10.24 96 0 21.76 2.56 42.24 5.12 64h474.88c17.92 0 32 14.080 32 32s-14.080 32-32 32h-460.8c55.040 185.6 226.56 320 430.080 320 148.48 0 234.24-56.32 327.68-149.76 12.8-12.8 33.28-12.8 46.080 0s12.8 33.28 0 46.080c-98.56 96-208.64 166.4-373.76 166.4v0z" />
<glyph unicode="&#xe913;" glyph-name="return" d="M523.52-52.48c-216.32 0-408.32 138.24-476.16 344.32-2.56 7.68-1.28 14.080 1.28 21.76s8.96 11.52 16.64 14.080c2.56 1.28 5.12 1.28 8.96 1.28 11.52 0 23.040-7.68 26.88-19.2 60.16-183.040 230.4-305.92 422.4-305.92 245.76 0 444.16 199.68 444.16 444.16 0 245.76-199.68 444.16-444.16 444.16-152.32 0-298.24-80.64-378.88-212.48l-15.36-25.6 94.72-48.64-186.88-89.6-37.12 206.080 80.64-40.96 12.8 21.76c89.6 151.040 254.72 245.76 430.080 245.76 276.48 0 500.48-224 500.48-500.48s-224-500.48-500.48-500.48z" />
<glyph unicode="&#xe914;" glyph-name="shipping" horiz-adv-x="1232" d="M1012.736 332.8c-0.967 1.544-2.023 2.885-3.205 4.102l0.005-0.006-147.968 155.008c-11.967 17.556-31.87 28.932-54.429 28.932-0.26 0-0.519-0.002-0.778-0.005h-96.473v100.096c0 49.485-40.115 89.6-89.6 89.6v0h-585.088c-0.001 0-0.002 0-0.003 0-13.509 0-24.485-10.843-24.701-24.3v-529.3c0.073-68.542 55.618-124.087 124.153-124.16h31.751c3.413-54.206 48.211-96.877 102.976-96.877s99.563 42.671 102.961 96.579l0.015 0.298h354.56c3.413-54.206 48.211-96.877 102.976-96.877s99.563 42.671 102.961 96.579l0.015 0.298h41.728c27.287 0 49.408 22.121 49.408 49.408v0 211.456c-0.088 14.514-4.27 28.033-11.448 39.483l0.184-0.315zM268.8-14.592c-29.761 0-53.888 24.127-53.888 53.888s24.126 53.888 53.888 53.888c29.762 0 53.888-24.126 53.888-53.888 0-0.045 0-0.090 0-0.135v0.007c-0.073-29.706-24.171-53.76-53.888-53.76 0 0 0 0 0 0v0zM660.48 496.128v-291.328h-507.776c-13.644 0-24.704-11.060-24.704-24.704s11.060-24.704 24.704-24.704h507.776v-73.6h-297.728c-16.683 35.855-52.403 60.265-93.824 60.265s-77.141-24.41-93.558-59.63l-0.266-0.635h-40.576c-41.255 0.073-74.679 33.497-74.752 74.745v504.839h560.128c22.41 0 40.576-18.166 40.576-40.576v0zM829.952-14.592c-0.19-0.002-0.415-0.004-0.64-0.004-29.762 0-53.888 24.126-53.888 53.888s24.126 53.888 53.888 53.888c29.76 0 53.886-24.124 53.888-53.884v0c0-0.001 0-0.002 0-0.004 0-29.537-23.763-53.523-53.214-53.884h-0.034zM923.776 82.176c-16.683 35.855-52.403 60.265-93.824 60.265s-77.141-24.41-93.558-59.63l-0.266-0.635h-25.6v389.248h95.872c0.003 0 0.007 0 0.011 0 6.011 0 11.289-3.139 14.284-7.867l0.041-0.069c0.967-1.544 2.023-2.885 3.205-4.102l-0.005 0.006 147.584-153.6c1.771-3.386 2.812-7.395 2.816-11.647v-211.969zM891.52 258.56h-103.424c0 0-0.001 0-0.001 0-3.278 0-5.943 2.621-6.015 5.881v86.279c0.073 17.618 14.372 31.872 32 31.872 0 0 0 0 0 0v0c13.644 0 24.704 11.060 24.704 24.704s-11.060 24.704-24.704 24.704v0c0 0 0 0 0 0-44.915 0-81.335-36.375-81.408-81.273v-86.279c0-30.61 24.814-55.424 55.424-55.424v0h103.424c13.644 0 24.704 11.060 24.704 24.704s-11.060 24.704-24.704 24.704v0zM833.792 601.6c-3.324 0.026-6.488 0.682-9.388 1.853l0.172-0.061c-7.424 2.816-180.992 72.32-180.992 259.2 0 0.019 0 0.041 0 0.063 0 10.237 6.009 19.071 14.692 23.166l0.156 0.066 145.408 67.456c8.8 4.183 19.123 6.626 30.016 6.626s21.216-2.443 30.45-6.811l-0.434 0.184 145.28-67.072c8.82-4.153 14.821-12.956 14.848-23.164v-0.004c0-186.752-173.568-256-180.992-259.2-2.696-1.273-5.836-2.101-9.145-2.301l-0.071-0.003zM695.424 846.976c8.32-118.784 107.52-176.128 138.496-191.104 31.36 14.976 130.048 71.552 138.88 191.104l-130.432 59.904c-2.496 1.186-5.423 1.879-8.512 1.879s-6.016-0.693-8.635-1.931l0.123 0.052zM814.592 930.176v0zM900.736 834.432l-1.536-1.408-75.776-72.704-38.4 36.992c-2.834 2.673-6.665 4.316-10.88 4.316s-8.046-1.643-10.888-4.323l0.008 0.007c-2.775-2.62-4.503-6.324-4.503-10.432s1.728-7.812 4.496-10.426l0.007-0.006 48.768-47.616 1.408-1.152 0.896-0.768 1.664-0.896h3.84c0.885-0.174 1.903-0.273 2.944-0.273s2.059 0.099 3.044 0.289l-0.1-0.016h3.84l1.664 0.768 1.024 0.768 1.408 1.024 87.936 83.584c3.218 2.649 5.254 6.633 5.254 11.092 0 3.78-1.463 7.219-3.854 9.78l0.008-0.008c-2.92 3.265-7.145 5.311-11.848 5.311-3.998 0-7.651-1.478-10.442-3.919l0.019 0.016z" />
<glyph unicode="&#xe915;" glyph-name="google" d="M325.12 512v-128c0 0 125.44 0 175.36 0-28.16-83.2-70.4-129.28-175.36-129.28-106.24 0-189.44 87.040-189.44 193.28s83.2 193.28 189.44 193.28c56.32 0 93.44-19.2 126.72-47.36 26.88 26.88 24.32 30.72 92.16 94.72-57.6 52.48-134.4 84.48-218.88 84.48-179.2 0-325.12-145.92-325.12-325.12s145.92-325.12 325.12-325.12c268.8 0 334.080 234.24 312.32 389.12-64 0-312.32 0-312.32 0zM911.36 505.6v112.64h-80.64v-112.64h-116.48v-80.64h116.48v-116.48h80.64v116.48h112.64v80.64h-112.64z" />
<glyph unicode="&#xe916;" glyph-name="instagram" d="M732.16-64h-440.32c-161.28 0-291.84 130.56-291.84 291.84v440.32c0 161.28 130.56 291.84 291.84 291.84h441.6c160 0 290.56-130.56 290.56-291.84v-441.6c0-160-130.56-290.56-291.84-290.56zM291.84 871.68c-112.64 0-203.52-90.88-203.52-203.52v-441.6c0-112.64 90.88-203.52 203.52-203.52h441.6c112.64 0 203.52 90.88 203.52 203.52v441.6c-1.28 112.64-92.16 203.52-204.8 203.52h-440.32zM512 185.6c-144.64 0-262.4 117.76-262.4 262.4s117.76 262.4 262.4 262.4 262.4-117.76 262.4-262.4c0-144.64-117.76-262.4-262.4-262.4zM512 622.080c-96 0-174.080-78.080-174.080-174.080s78.080-174.080 174.080-174.080 174.080 78.080 174.080 174.080-78.080 174.080-174.080 174.080zM848.64 725.76c0-34.639-28.081-62.72-62.72-62.72s-62.72 28.081-62.72 62.72c0 34.639 28.081 62.72 62.72 62.72s62.72-28.081 62.72-62.72z" />
<glyph unicode="&#xe917;" glyph-name="mail" d="M0 832v-768h1024v768h-1024zM947.2 789.76l-435.2-357.12-435.2 357.12h870.4zM42.24 106.24v655.36l469.76-384 469.76 384v-655.36h-939.52z" />
<glyph unicode="&#xe918;" glyph-name="pinterest" d="M591.36 220.16c-64 0-122.88 34.56-143.36 72.96 0 0-34.56-135.68-40.96-161.28-25.6-92.16-99.84-184.32-106.24-192-3.84-5.12-12.8-3.84-14.080 3.84-1.28 11.52-20.48 128 1.28 224 11.52 47.36 75.52 320 75.52 320s-19.2 37.12-19.2 93.44c0 87.040 51.2 152.32 113.92 152.32 53.76 0 79.36-39.68 79.36-88.32 0-53.76-34.56-134.4-52.48-208.64-15.36-62.72 30.72-112.64 93.44-112.64 111.36 0 186.88 143.36 186.88 312.32 0 129.28-87.040 225.28-244.48 225.28-179.2-1.28-290.56-134.4-290.56-284.16 0-51.2 15.36-87.040 38.4-115.2 10.24-12.8 12.8-17.92 8.96-33.28-2.56-10.24-8.96-37.12-11.52-47.36-3.84-15.36-15.36-20.48-29.44-14.080-83.2 34.56-121.6 124.16-121.6 225.28 0 166.4 140.8 367.36 421.12 367.36 224 0 372.48-162.56 372.48-336.64 0-231.68-129.28-403.2-317.44-403.2z" />
<glyph unicode="&#xe919;" glyph-name="screen" d="M335.232 0c-0.588-0.041-1.274-0.064-1.965-0.064-16.683 0-30.208 13.525-30.208 30.208s13.525 30.208 30.208 30.208c0.691 0 1.378-0.023 2.057-0.069l-0.092 0.005c64.768 0 71.552 29.056 72.32 34.944l6.4 68.48h-357.632c-0.076 0-0.167-0.001-0.257-0.001-30.828 0-55.845 24.883-56.063 55.66v620.949c0.217 30.798 25.234 55.681 56.063 55.681 0.090 0 0.181 0 0.271-0.001h911.346c0.028 0 0.062 0 0.096 0 15.497 0 29.532-6.259 39.715-16.387l-0.003 0.002c10.193-9.978 16.512-23.877 16.512-39.253 0-0.015 0-0.031 0-0.046v0.002-620.928c-0.217-30.798-25.234-55.681-56.063-55.681-0.090 0-0.181 0-0.271 0.001h-357.746l6.272-66.944c0-6.016 6.656-36.352 72.448-36.352 0.588 0.041 1.274 0.064 1.965 0.064 16.683 0 30.208-13.525 30.208-30.208s-13.525-30.208-30.208-30.208c-0.691 0-1.378 0.023-2.057 0.069l0.092-0.005zM468.608 91.136c-0.421-5.274-1.374-10.153-2.816-14.818l0.128 0.482-5.12-16.512h102.4l-4.992 16.512c-1.516 4.776-2.565 10.319-2.933 16.048l-0.011 0.208-6.656 70.272h-73.216zM61.184 224h901.632v611.712h-901.632z" />
<glyph unicode="&#xe91a;" glyph-name="search" d="M991.36 0c-0.015 0-0.033 0-0.050 0-7.491 0-14.385 2.553-19.86 6.837l0.071-0.053-332.8 256-3.968-3.968c-67.54-67.29-160.713-108.893-263.603-108.893-206.281 0-373.504 167.223-373.504 373.504s167.223 373.504 373.504 373.504c206.281 0 373.504-167.223 373.504-373.504 0-76.282-22.868-147.223-62.122-206.341l0.861 1.378-3.328-4.992 331.136-254.848c7.829-6.049 12.822-15.441 12.822-25.998 0-7.487-2.511-14.387-6.736-19.904l0.058 0.079c-5.975-7.812-15.301-12.801-25.792-12.801-0.068 0-0.135 0-0.203 0.001h0.010zM371.968 830.72c-169.662 0-307.2-137.538-307.2-307.2s137.538-307.2 307.2-307.2c169.662 0 307.2 137.538 307.2 307.2v0c0 169.662-137.538 307.2-307.2 307.2v0z" />
<glyph unicode="&#xe91b;" glyph-name="facebook" d="M730.88 448h-143.36c0-229.12 0-512 0-512h-212.48c0 0 0 279.040 0 512h-101.12v180.48h101.12v116.48c0 84.48 39.68 215.040 215.040 215.040h157.44v-175.36c0 0-96 0-113.92 0-19.2 0-44.8-8.96-44.8-48.64v-106.24h162.56l-20.48-181.76z" />
<glyph unicode="&#xe91c;" glyph-name="twitter" d="M919.040 656.64c0-8.96 0-17.92 0-26.88 0-277.76-211.2-597.76-597.76-597.76-119.040 0-229.12 34.56-322.56 94.72 16.64-2.56 33.28-2.56 49.92-2.56 98.56 0 189.44 33.28 261.12 89.6-90.88 1.28-167.68 61.44-194.56 145.92 12.8-2.56 25.6-3.84 39.68-3.84 19.2 0 37.12 2.56 55.040 7.68-96 17.92-168.96 103.68-168.96 204.8 0 1.28 0 1.28 0 2.56 28.16-15.36 60.16-25.6 94.72-26.88-56.32 37.12-93.44 102.4-93.44 175.36 0 38.4 10.24 74.24 28.16 106.24 103.68-126.72 258.56-211.2 432.64-218.88-3.84 15.36-5.12 32-5.12 47.36 0 116.48 93.44 209.92 209.92 209.92 60.16 0 115.2-25.6 153.6-66.56 47.36 8.96 93.44 26.88 133.12 51.2-15.36-48.64-48.64-90.88-92.16-116.48 42.24 5.12 83.2 16.64 120.32 33.28-26.88-42.24-62.72-79.36-103.68-108.8z" />
<glyph unicode="&#xe91d;" glyph-name="wishlist-empty" d="M271.36 886.556c-69.12 0-138.24-25.6-192-79.36-106.24-104.96-106.24-276.48 0-382.72l407.040-405.76c14.080-12.8 38.4-12.8 51.2 0 135.68 135.68 271.36 270.080 407.040 405.76 106.24 104.96 106.24 276.48 0 382.72-106.24 104.96-277.76 104.96-384 0l-48.64-48.64-49.92 49.92c-52.48 52.48-121.6 78.080-190.72 78.080zM410.88 755.996l75.52-75.52c14.080-12.8 38.4-12.8 51.2 0l75.52 74.24c78.080 78.080 202.24 78.080 280.32 0s78.080-200.96 0-277.76c-126.72-126.72-253.44-253.44-381.44-380.16l-381.44 380.16c-78.080 78.080-78.080 200.96 0 279.040 83.2 75.52 203.52 78.080 280.32 0v0z" />
<glyph unicode="&#xe91e;" glyph-name="wishlist" d="M271.36 886.556c-69.12 0-138.24-25.6-192-79.36-106.24-104.96-106.24-276.48 0-382.72l407.040-405.76c14.080-12.8 38.4-12.8 51.2 0 135.68 135.68 271.36 270.080 407.040 405.76 106.24 104.96 106.24 276.48 0 382.72-106.24 104.96-277.76 104.96-384 0l-48.64-48.64-49.92 49.92c-52.48 52.48-121.6 78.080-190.72 78.080z" />
<glyph unicode="&#xe91f;" glyph-name="logo" horiz-adv-x="4049" d="M690.188 285.576l-253.45 674.424h-233.669c38.912-1.681 72.316-23.733 89.972-55.698l0.281-0.555 218.214-587.262c8.984-20.984 15.239-45.307 17.549-70.768l0.069-0.939c0-24.109-13.291-45.126-52.854-56.254h303.213c-43.121 17.011-75.844 52.269-89.051 95.996l-0.274 1.057zM1065.727 267.958v427.465l-216.36-27.509c41.956-5.816 73.912-41.448 73.912-84.543 0-0.921-0.015-1.839-0.044-2.753l0.003 0.134v-307.54c0-61.817-30.909-78.199-56.254-84.998h253.45c-31.99 6.967-55.593 35.043-55.593 68.633 0 3.923 0.322 7.771 0.941 11.519l-0.056-0.408zM1607.244 859.547c-21.018-68.308-79.435-158.87-145.579-175.251h-74.181v-19.781h77.271v-360.394c0-61.817 16.382-130.125 123.634-130.125 0.191 0 0.418-0.001 0.645-0.001 47.938 0 93.511 10.124 134.699 28.35l-2.128-0.84c-10.059-2.75-21.609-4.33-33.527-4.33-0.275 0-0.549 0.001-0.824 0.003h0.042c-55.017 0-81.599 30.909-81.599 97.053v370.903h154.543v19.163h-152.997zM2506.992 18.835v675.661l-216.36-26.581c41.312-5.931 72.712-41.084 72.712-83.57 0-1.263-0.028-2.52-0.083-3.77l0.006 0.178v-561.917c0-61.817-30.909-74.799-56.254-82.526h256.85c-33.232 8.357-57.445 37.973-57.445 73.244 0 3.272 0.208 6.495 0.612 9.656l-0.039-0.375zM2700.788 697.586c-1.512 0.037-3.294 0.059-5.080 0.059-47.157 0-90.85-14.832-126.667-40.086l0.695 0.465c19.705 9.643 42.864 15.332 67.339 15.454h0.041c90.253 0 140.016-85.926 140.016-243.559s-51.926-250.050-146.506-250.050h-13.291c19.846-4.043 42.692-6.401 66.073-6.491h0.071c118.998 0 249.123 74.799 249.123 267.977-0.309 159.179-90.562 256.232-231.814 256.232zM3807.005 267.958v427.465l-216.36-27.509c41.956-5.816 73.912-41.448 73.912-84.543 0-0.921-0.015-1.839-0.044-2.753l0.003 0.134v-307.54c0-61.817-30.909-78.199-56.254-84.998h253.45c-31.99 6.967-55.593 35.043-55.593 68.633 0 3.923 0.322 7.771 0.941 11.519l-0.056-0.408zM1177.925 681.823c-27.273-15.595-50.466-34.848-69.87-57.45l-0.293-0.349c10.963 10.081 25.652 16.26 41.784 16.26 4.134 0 8.174-0.406 12.081-1.18l-0.393 0.065c-0.391-3.14-0.615-6.774-0.615-10.46 0-14.917 3.656-28.979 10.122-41.341l-0.234 0.492c12.577-22.416 36.192-37.315 63.287-37.315 39.945 0 72.326 32.381 72.326 72.326 0 12.044-2.944 23.4-8.151 33.388l0.19-0.4c-18.236 34.618-61.817 56.872-120.234 25.963zM4040.983 655.86c-17.927 34.308-61.817 55.944-119.925 26.272-27.273-15.595-50.466-34.848-69.87-57.45l-0.293-0.349c10.963 10.081 25.652 16.26 41.784 16.26 4.134 0 8.174-0.406 12.081-1.18l-0.393 0.065c-0.391-3.14-0.615-6.774-0.615-10.46 0-14.917 3.656-28.979 10.122-41.341l-0.234 0.492c12.943-20.815 35.69-34.466 61.625-34.466 39.945 0 72.326 32.381 72.326 72.326 0 10.691-2.32 20.841-6.483 29.973l0.185-0.453zM2074.272 479.372c-88.089 39.563-136.616 61.817-136.616 123.634 0.305 44.616 30.011 82.211 70.696 94.399l0.702 0.181c-123.634-3.4-200.596-64.908-200.596-145.579s68.308-109.107 154.543-147.743 140.943-63.981 140.943-128.889c0-0.008 0-0.018 0-0.028 0-48.419-32.842-89.168-77.465-101.184l-0.733-0.168c105.707 4.327 216.36 45.126 216.36 145.579 2.782 84.071-78.508 121.161-167.833 159.797zM2101.781 620.006c-4.378-9.049-6.937-19.68-6.937-30.908 0-39.945 32.381-72.326 72.326-72.326 25.742 0 48.343 13.448 61.161 33.703l0.175 0.297c18.854 33.999 12.054 83.144-44.199 114.671-25.185 13.234-54.507 22.709-85.535 26.75l-1.318 0.14c19.144-4.907 34.43-18.264 41.883-35.759l0.153-0.404c-16.015-8.207-28.892-20.587-37.477-35.72l-0.231-0.443zM1942.911 249.104c5.055 9.618 8.021 21.015 8.021 33.104 0 39.945-32.381 72.326-72.326 72.326-26.265 0-49.26-14-61.929-34.945l-0.182-0.323c-19.163-33.69-12.673-83.144 43.581-114.98 25.069-13.403 54.26-23.078 85.174-27.353l1.37-0.155c-19.201 4.971-34.504 18.447-41.884 36.064l-0.151 0.408c16.228 8.037 29.313 20.327 38.098 35.428l0.229 0.426zM165.67 271.667c0-45.748-37.086-82.835-82.835-82.835s-82.835 37.086-82.835 82.835c0 45.748 37.086 82.835 82.835 82.835s82.835-37.086 82.835-82.835zM3167.507 450.627c0 97.98 27.509 216.36 82.526 241.396-143.416-19.781-234.905-121.161-234.905-262.414 0-157.634 113.434-256.85 283.122-256.85 3.324-0.132 7.226-0.207 11.146-0.207 71.528 0 137.212 25.023 188.776 66.792l-0.562-0.441c-39.554-21.5-86.487-34.453-136.376-35.233l-0.24-0.003c-127.343 0-193.487 93.653-193.487 246.959zM3336.268 692.641c35.662-25.252 60.089-64.345 65.454-109.292l0.072-0.742c6.182-61.817-11.745-91.18-49.454-102.307-4.053-1.234-9.161-2.416-14.373-3.293l-0.772-0.107h203.996c-2.164 116.216-83.762 200.596-204.924 215.742z" />
<glyph unicode="&#xe920;" glyph-name="logo-monogramme" d="M248.32 960h309.76l335.36-894.72c0 0 42.24-110.080 115.2-124.16h-396.8c0 0 98.56 14.080 65.28 110.080-30.72 96-302.080 824.32-309.76 838.4-6.4 16.64-48.64 72.96-119.040 70.4zM206.080 32c0-53.019-42.981-96-96-96s-96 42.981-96 96c0 53.019 42.981 96 96 96s96-42.981 96-96z" />
<glyph unicode="&#xe921;" glyph-name="quit" d="M985.6 91.52l-356.096 356.48 356.096 356.48c16.458 16.487 26.636 39.247 26.636 64.385 0 50.157-40.518 90.851-90.609 91.135h-0.027c-25.009-0.031-47.637-10.202-63.997-26.621l-345.603-345.603-345.6 345.6c-15.739 13.312-36.264 21.404-58.679 21.404-50.333 0-91.136-40.803-91.136-91.136 0-22.639 8.255-43.35 21.918-59.287l-0.103 0.123 356.096-356.48-356.096-356.48c-19.904-16.828-32.457-41.814-32.457-69.732 0-50.333 40.803-91.136 91.136-91.136 27.694 0 52.503 12.353 69.218 31.849l0.103 0.123 345.6 345.6 345.6-345.6c16.817-19.619 41.626-31.972 69.321-31.972 50.333 0 91.136 40.803 91.136 91.136 0 27.918-12.553 52.903-32.322 69.621l-0.134 0.111z" />
<glyph unicode="&#xe922;" glyph-name="linkedin" d="M1024 127.253c0-105.588-85.665-191.253-191.253-191.253h-641.494c-105.588 0-191.253 85.665-191.253 191.253v641.494c0 105.588 85.665 191.253 191.253 191.253 0 0 0 0 0 0h639.502c105.588 0 191.253-85.665 191.253-191.253v-641.494zM237.074 788.669c-43.829 0-79.689-33.868-79.689-77.696s33.868-79.689 77.696-79.689v0c43.829 0 79.689 35.86 79.689 79.689s-35.86 75.704-77.696 77.696v0zM312.778 101.354v464.187h-155.393v-462.195l155.393-1.992zM866.615 101.354v266.957c0 141.447-75.704 209.183-177.307 209.183-57.774 1.992-111.564-27.891-139.455-77.696h1.992v67.735h-153.401c0 0 1.992-43.829 0-462.195h153.401v256.996c0 11.953 0 25.899 3.984 37.852 11.953 33.868 43.829 55.782 79.689 55.782 55.782 0 77.696-41.837 77.696-105.588v-247.035l153.401-1.992z" />
<glyph unicode="&#xe923;" glyph-name="user-star" horiz-adv-x="1330" d="M480.63 422.173c133.016 0 240.315 125.478 240.315 277.781 0.222 149.199-103.974 260.046-240.315 260.046s-240.315-110.847-240.315-260.046c0-154.077 107.743-277.781 240.315-277.781zM480.63 915.661c110.847 0 195.977-92.668 195.977-215.707 0-128.804-88.677-233.443-195.977-233.443s-195.977 104.861-195.977 233.443c0 123.040 84.243 215.707 195.977 215.707zM1330.158 370.297c-2.934 8.812-11.016 15.091-20.593 15.296h-0.024l-243.862 4.877-80.253 230.561c-3.096 8.757-11.303 14.918-20.95 14.918s-17.854-6.161-20.902-14.763l-0.048-0.155-80.253-230.561-243.862-4.877c-9.601-0.206-17.683-6.485-20.572-15.14l-0.045-0.156c0.451 0.962 0.894 1.761 1.384 2.528l-0.053-0.089c-34.888 5.222-75.152 8.204-116.113 8.204-0.486 0-0.973 0-1.459-0.001h0.075c-312.144 0-482.626-145.209-482.626-410.575v-26.825h733.582c1.001-1.234 2.091-2.324 3.284-3.293l0.041-0.032c3.572-2.57 8.035-4.11 12.858-4.11s9.286 1.54 12.924 4.155l-0.066-0.045 5.099 3.547h195.755v26.603c0 0.138 0 0.302 0 0.465 0 36.241-3.713 71.615-10.78 105.761l0.582-3.361 10.42 7.094 199.524-139.445c3.478-2.377 7.776-3.795 12.404-3.795 12.244 0 22.169 9.926 22.169 22.169 0 1.899-0.239 3.742-0.688 5.5l0.033-0.153-70.498 233.664 194.646 147.426c5.924 4.041 9.763 10.758 9.763 18.373 0 2.222-0.327 4.368-0.935 6.392l0.041-0.157zM728.705-35.402c-0.139-0.933-0.218-2.009-0.218-3.104s0.079-2.171 0.233-3.224l-0.014 0.12c-0.139 0.933-0.218 2.009-0.218 3.104s0.079 2.171 0.233 3.224l-0.014-0.12zM728.705-47.151c-0.021 0.364-0.034 0.79-0.034 1.219s0.012 0.855 0.036 1.278l-0.003-0.059c-0.119-0.781-0.199-1.7-0.221-2.634v-0.026zM730.257-51.363v0zM735.799-12.124h-691.46c9.089 288.201 240.98 348.723 436.070 348.723 1.814 0.016 3.959 0.026 6.106 0.026 53.424 0 105.508-5.742 155.666-16.643l-4.813 0.877-33.032 25.051 194.646-147.426zM918.696-12.124h-87.347l81.583 56.753c2.75-16.411 4.736-35.971 5.514-55.841l0.028-0.912zM1087.848 224.423c-5.335-4.091-8.741-10.468-8.741-17.64 0-2.329 0.359-4.573 1.025-6.682l-0.043 0.157 56.753-187.552-160.949 110.847c-3.527 2.474-7.909 3.954-12.637 3.954s-9.109-1.48-12.708-4.001l0.071 0.047-160.727-110.847 56.753 187.331c0.623 1.951 0.982 4.196 0.982 6.525 0 7.172-3.406 13.549-8.688 17.601l-0.053 0.039-155.185 118.384 195.755 3.99c9.409 0.234 17.343 6.294 20.347 14.699l0.048 0.155 64.291 184.892 63.183-184.892c3.053-8.559 10.987-14.62 20.368-14.853l196.004-3.991z" />
<glyph unicode="&#xe924;" glyph-name="news" horiz-adv-x="1088" d="M1077.757 662.050c-1.613 2.793-3.73 5.118-6.246 6.92l-0.066 0.045-174.113 119.702v149.519c0 12.020-9.744 21.764-21.764 21.764v0h-662.499c-12.020 0-21.764-9.744-21.764-21.764v0-156.266l-174.113-112.738c-2.772-1.867-5.038-4.272-6.691-7.080l-0.055-0.102c-6.307-3.786-10.502-10.526-10.664-18.259v-684.939c0-12.020 9.744-21.764 21.764-21.764v0h1044.894c12.020 0 21.764 9.744 21.764 21.764v0 684.916c-0.113 7.717-4.226 14.449-10.353 18.228l-0.094 0.054zM896.898 622.004h99.462l-99.462-65.292zM999.189 665.532h-102.291v70.298zM234.834 916.472h618.535v-386.965l-323.632-209.588-294.903 202.188zM191.306 551.923l-102.291 70.298h102.291zM191.306 665.75h-99.679l99.462 65.292zM43.528-19.384v619.841l473.586-324.72c3.394-2.293 7.577-3.66 12.079-3.66s8.685 1.367 12.156 3.709l-0.077-0.049 503.403 325.808v-620.929zM390.012 785.887h308.179c12.020 0 21.764 9.744 21.764 21.764s-9.744 21.764-21.764 21.764v0h-308.179c-12.020 0-21.764-9.744-21.764-21.764s9.744-21.764 21.764-21.764v0zM390.012 658.567h308.179c12.020 0 21.764 9.744 21.764 21.764s-9.744 21.764-21.764 21.764v0h-308.179c-12.020 0-21.764-9.744-21.764-21.764s9.744-21.764 21.764-21.764v0zM390.012 529.289h308.179c12.020 0 21.764 9.744 21.764 21.764s-9.744 21.764-21.764 21.764v0h-308.179c-12.020 0-21.764-9.744-21.764-21.764s9.744-21.764 21.764-21.764v0z" />
<glyph unicode="&#xe925;" glyph-name="secure" d="M807.168 550.4h-6.016v126.464c0.041 1.792 0.064 3.903 0.064 6.020 0 156.372-126.764 283.136-283.136 283.136s-283.136-126.764-283.136-283.136c0-2.117 0.023-4.228 0.069-6.333l-0.005 0.313v-126.464h-18.176c-49.649-0.641-89.727-40.719-90.367-90.307l-0.001-0.061v-433.664c0.641-49.649 40.719-89.727 90.307-90.367l0.061-0.001h590.336c49.649 0.641 89.727 40.719 90.367 90.307l0.001 0.061v433.664c-0.641 49.649-40.719 89.727-90.307 90.367l-0.061 0.001zM319.232 676.864c0 109.821 89.027 198.848 198.848 198.848s198.848-89.027 198.848-198.848v0l-0.768-126.464h-396.8zM807.168 20.224h-590.336c-0.211-0.029-0.454-0.046-0.702-0.046-2.969 0-5.376 2.407-5.376 5.376 0 0.287 0.023 0.569 0.066 0.844l-0.004-0.030v433.664c-0.039 0.245-0.062 0.527-0.062 0.814 0 2.969 2.407 5.376 5.376 5.376 0.248 0 0.491-0.017 0.73-0.049l-0.028 0.003h590.336c0.211 0.029 0.454 0.046 0.702 0.046 2.969 0 5.376-2.407 5.376-5.376 0-0.287-0.023-0.569-0.066-0.844l0.004 0.030v-433.664c0.039-0.245 0.062-0.527 0.062-0.814 0-2.969-2.407-5.376-5.376-5.376-0.248 0-0.491 0.017-0.73 0.049l0.028-0.003z" />
<glyph unicode="&#xe926;" glyph-name="warning-sign" d="M1015.125 430.933c5.27 3.895 8.649 10.086 8.649 17.067s-3.38 13.171-8.592 17.026l-0.058 0.041-74.411 53.931c-5.209 3.899-8.545 10.055-8.545 16.99 0 4.067 1.147 7.866 3.136 11.091l-0.052-0.091 47.787 77.824c1.893 3.107 3.013 6.864 3.013 10.883 0 9.848-6.727 18.125-15.837 20.487l-0.147 0.032-88.747 21.163c-9.251 2.398-15.973 10.672-15.973 20.516 0 1.192 0.099 2.362 0.288 3.5l-0.017-0.123 14.336 90.112c0.13 0.882 0.205 1.9 0.205 2.935 0 11.688-9.475 21.163-21.163 21.163-1.035 0-2.053-0.074-3.049-0.218l0.114 0.013-90.112-14.336c-1.015-0.173-2.185-0.271-3.377-0.271-9.844 0-18.118 6.721-20.484 15.825l-0.032 0.147-21.845 90.112c-2.394 9.257-10.671 15.984-20.519 15.984-4.019 0-7.777-1.12-10.977-3.066l0.094 0.053-77.824-47.787c-3.134-1.936-6.933-3.083-11-3.083-6.935 0-13.090 3.335-16.95 8.49l-0.039 0.055-53.931 73.728c-3.895 5.27-10.086 8.649-17.067 8.649s-13.171-3.38-17.026-8.592l-0.041-0.058-53.931-73.728c-3.899-5.209-10.055-8.545-16.99-8.545-4.067 0-7.866 1.147-11.091 3.136l0.091-0.052-77.824 47.787c-3.107 1.893-6.864 3.013-10.883 3.013-9.848 0-18.125-6.727-20.487-15.837l-0.032-0.147-21.163-88.747c-2.398-9.251-10.672-15.973-20.516-15.973-1.192 0-2.362 0.099-3.5 0.288l0.123-0.017-90.795 13.653c-0.882 0.13-1.9 0.205-2.935 0.205-11.688 0-21.163-9.475-21.163-21.163 0-1.035 0.074-2.053 0.218-3.049l-0.013 0.114 14.336-90.112c0.173-1.015 0.271-2.185 0.271-3.377 0-9.844-6.721-18.118-15.825-20.484l-0.147-0.032-88.747-21.163c-9.257-2.394-15.984-10.671-15.984-20.519 0-4.019 1.12-7.777 3.066-10.977l-0.053 0.094 47.787-77.824c1.936-3.134 3.083-6.933 3.083-11 0-6.935-3.335-13.090-8.49-16.95l-0.055-0.039-74.411-54.613c-5.27-3.895-8.649-10.086-8.649-17.067s3.38-13.171 8.592-17.026l0.058-0.041 74.411-53.931c5.209-3.899 8.545-10.055 8.545-16.99 0-4.067-1.147-7.866-3.136-11.091l0.052 0.091-47.787-77.824c-1.893-3.107-3.013-6.864-3.013-10.883 0-9.848 6.727-18.125 15.837-20.487l0.147-0.032 88.747-21.163c9.251-2.398 15.973-10.672 15.973-20.516 0-1.192-0.099-2.362-0.288-3.5l0.017 0.123-14.336-90.112c-0.13-0.882-0.205-1.9-0.205-2.935 0-11.688 9.475-21.163 21.163-21.163 1.035 0 2.053 0.074 3.049 0.218l-0.114-0.013 90.112 14.336c1.015 0.173 2.185 0.271 3.377 0.271 9.844 0 18.118-6.721 20.484-15.825l0.032-0.147 21.163-88.747c2.394-9.257 10.671-15.984 20.519-15.984 4.019 0 7.777 1.12 10.977 3.066l-0.094-0.053 77.824 47.787c3.134 1.936 6.933 3.083 11 3.083 6.935 0 13.090-3.335 16.95-8.49l0.039-0.055 53.931-74.411c3.895-5.27 10.086-8.649 17.067-8.649s13.171 3.38 17.026 8.592l0.041 0.058 53.931 74.411c3.899 5.209 10.055 8.545 16.99 8.545 4.067 0 7.866-1.147 11.091-3.136l-0.091 0.052 77.824-47.787c3.107-1.893 6.864-3.013 10.883-3.013 9.848 0 18.125 6.727 20.487 15.837l0.032 0.147 21.163 88.747c2.398 9.251 10.672 15.973 20.516 15.973 1.192 0 2.362-0.099 3.5-0.288l-0.123 0.017 90.112-14.336c0.882-0.13 1.9-0.205 2.935-0.205 11.688 0 21.163 9.475 21.163 21.163 0 1.035-0.074 2.053-0.218 3.049l0.013-0.114-14.336 90.112c-0.173 1.015-0.271 2.185-0.271 3.377 0 9.844 6.721 18.118 15.825 20.484l0.147 0.032 88.747 21.163c9.257 2.394 15.984 10.671 15.984 20.519 0 4.019-1.12 7.777-3.066 10.977l0.053-0.094-47.787 77.824c-1.936 3.134-3.083 6.933-3.083 11 0 6.935 3.335 13.090 8.49 16.95l0.055 0.039zM563.2 669.184l-17.067-286.72h-68.267l-17.749 286.72zM512 226.816c-0.204-0.003-0.446-0.005-0.687-0.005-28.039 0-50.813 22.538-51.195 50.486v0.036c0 28.654 23.229 51.883 51.883 51.883s51.883-23.229 51.883-51.883v0c-0.382-27.984-23.157-50.522-51.196-50.522-0.242 0-0.483 0.002-0.724 0.005h0.036z" />
<glyph unicode="&#xe927;" glyph-name="eye-open" horiz-adv-x="1182" d="M896.394 582.695c-19.289-55.909-71.458-95.353-132.84-95.353-1.206 0-2.409 0.015-3.608 0.046l0.177-0.004c-1.197-0.037-2.605-0.059-4.018-0.059-74.489 0-135.178 59.083-137.761 132.943l-0.007 0.236c3.050 63.296 49.1 114.998 109.424 126.681l0.853 0.137c-40.498 18.696-87.858 29.697-137.762 29.932h-0.084c-1.175 0.015-2.563 0.024-3.953 0.024-182.483 0-330.622-147.046-332.39-329.112l-0.001-0.167c1.769-182.233 149.908-329.279 332.391-329.279 1.39 0 2.778 0.009 4.164 0.026l-0.211-0.002c1.175-0.015 2.563-0.024 3.953-0.024 182.483 0 330.622 147.046 332.39 329.112l0.001 0.167c-0.384 48.997-11.674 95.266-31.555 136.623l0.835-1.928zM590.769-64c-322.954 0-590.769 338.708-590.769 512s267.815 512 590.769 512 590.769-338.708 590.769-512-267.815-512-590.769-512zM590.769 886.745c-289.871 0-521.452-315.077-521.452-438.745s230.794-438.745 521.452-438.745 521.452 315.077 521.452 438.745-231.582 438.745-521.452 438.745z" />
<glyph unicode="&#xe928;" glyph-name="famous" d="M512 960c-282.77 0-512-229.23-512-512s229.23-512 512-512c282.77 0 512 229.23 512 512v0c0 282.77-229.23 512-512 512v0zM783.36 386.56v0c-23.56 0.585-42.586 19.214-43.8 42.557l-0.005 0.11-5.689 75.662-217.884-217.316c-8.141-8.18-19.408-13.242-31.858-13.242s-23.717 5.062-31.856 13.241l-106.384 106.384-105.813-105.244c-8.153-8.153-19.417-13.196-31.858-13.196-24.882 0-45.054 20.171-45.054 45.054 0 12.441 5.043 23.705 13.196 31.858v0l137.671 137.102c8.26 7.914 19.49 12.787 31.858 12.787s23.597-4.872 31.874-12.802l106.366-106.366 180.338 178.631h-65.422c-24.090 0.925-43.269 20.679-43.269 44.911 0 0.611 0.012 1.219 0.036 1.825l-0.003-0.087c1.54 24.198 21.542 43.24 45.992 43.24 0.231 0 0.461-0.002 0.691-0.005h-0.035l174.080-6.827c23.506-0.904 42.331-19.73 43.233-43.152l0.003-0.084 6.827-170.667c-0.296-23.992-19.345-43.439-43.15-44.371l-0.085-0.003z" />
<glyph unicode="&#xe929;" glyph-name="unavoidable" d="M512 960c-282.77 0-512-229.23-512-512s229.23-512 512-512c282.77 0 512 229.23 512 512v0c0 282.77-229.23 512-512 512v0zM846.507 489.529l-155.307-129.707 48.356-196.267c0.683-2.7 1.075-5.799 1.075-8.989 0-21.051-17.065-38.116-38.116-38.116-7.34 0-14.196 2.075-20.012 5.67l0.164-0.094-170.667 107.52-170.667-107.52c-5.653-3.501-12.508-5.576-19.849-5.576-21.051 0-38.116 17.065-38.116 38.116 0 3.191 0.392 6.29 1.131 9.252l-0.055-0.262 18.204 72.249c4.281 16.715 19.21 28.872 36.978 28.872s32.696-12.158 36.92-28.608l0.058-0.264 113.778 72.818c5.714 3.697 12.698 5.894 20.196 5.894s14.481-2.197 20.343-5.983l-0.148 0.089 113.778-69.973-32.427 128c-0.322 1.862-0.507 4.006-0.507 6.193 0 11.943 5.493 22.603 14.090 29.591l0.070 0.055 101.262 84.764-131.413 9.102c-14.751 1.192-27.037 10.621-32.335 23.638l-0.092 0.255-51.2 122.311-48.924-122.88c-5.39-13.272-17.676-22.701-32.291-23.885l-0.135-0.009-131.413-9.102 98.987-84.196c5.324-6.503 8.55-14.902 8.55-24.055 0-21.051-17.065-38.116-38.116-38.116-7.139 0-13.82 1.963-19.533 5.378l0.174-0.096-171.804 143.929c-8.3 7.037-13.533 17.472-13.533 29.129 0 20.007 15.415 36.414 35.016 37.991l202.091 13.662 75.662 187.733c6.528 13.148 19.863 22.026 35.271 22.026s28.743-8.878 35.168-21.798l0.103-0.228 75.662-187.733 201.956-13.653c19.736-1.586 35.151-17.993 35.151-38 0-11.657-5.233-22.092-13.478-29.083l-0.055-0.046z" />
<glyph unicode="&#xe92a;" glyph-name="bestseller" d="M512 960c-282.77 0-512-229.23-512-512s229.23-512 512-512c282.77 0 512 229.23 512 512v0c0 282.77-229.23 512-512 512v0zM613.831 663.609l76.231-113.778h-361.244l79.644 113.778zM246.329 663.609h110.364l-79.644-113.778h-124.587zM512 88.462l-359.538 420.409h122.311l237.227-420.409-191.716 420.409h376.604l-184.889-413.013 227.556 413.013h129.707zM739.556 552.107l-76.231 113.778h113.778l93.867-113.778z" />
<glyph unicode="&#xe92b;" glyph-name="staffpick" horiz-adv-x="1048" d="M386.207 345.931c-25.291 0-45.793-20.502-45.793-45.793s20.502-45.793 45.793-45.793c25.291 0 45.793 20.502 45.793 45.793v0c0 25.291-20.502 45.793-45.793 45.793v0zM606.897 254.345h165.517c-24.341 9.516-42.688 29.677-49.521 54.599l-0.134 0.573-141.793 369.655h-129.655c21.566-0.876 40.119-12.982 50.051-30.596l0.156-0.301 120.828-323.862c5.075-11.453 8.6-24.736 9.893-38.667l0.038-0.506c0.552-13.241-7.172-24.828-29.241-30.897zM606.897 254.345h165.517c-24.341 9.516-42.688 29.677-49.521 54.599l-0.134 0.573-141.793 369.655h-129.655c21.566-0.876 40.119-12.982 50.051-30.596l0.156-0.301 120.828-323.862c5.075-11.453 8.6-24.736 9.893-38.667l0.038-0.506c0.552-13.241-7.172-24.828-29.241-30.897zM386.207 345.931c-25.291 0-45.793-20.502-45.793-45.793s20.502-45.793 45.793-45.793c25.291 0 45.793 20.502 45.793 45.793v0c0 25.291-20.502 45.793-45.793 45.793v0zM1048.276 505.931c-0.966 8.081-5.042 15.061-10.976 19.817l-0.059 0.046-88.276 67.31 25.379 106.483c0.488 2.001 0.769 4.298 0.769 6.661 0 14.078-9.949 25.832-23.199 28.616l-0.19 0.033-110.345 23.724-23.724 107.586c-1.889 7.756-6.673 14.16-13.115 18.135l-0.126 0.072c-4.522 2.823-10.013 4.497-15.896 4.497-2.186 0-4.317-0.231-6.372-0.67l0.199 0.036-110.345-24.828-68.966 86.069c-5.504 6.616-13.74 10.797-22.951 10.797-6.986 0-13.41-2.404-18.49-6.43l0.062 0.047-87.724-69.517-101.517 48.552c-4.121 2.291-9.038 3.64-14.271 3.64-11.973 0-22.297-7.063-27.032-17.25l-0.077-0.184-48-99.31h-110.345c-0.331 0.014-0.719 0.021-1.109 0.021-15.845 0-28.69-12.845-28.69-28.69 0-0.202 0.002-0.403 0.006-0.603v0.030-106.483l-100.966-49.103c-7.232-3.163-12.772-9.062-15.387-16.355l-0.061-0.196c-1.483-3.42-2.345-7.402-2.345-11.586s0.862-8.167 2.419-11.78l-0.074 0.193 49.103-97.655-68.966-85.517c-4.226-4.894-6.8-11.318-6.8-18.343 0-1.119 0.065-2.222 0.192-3.306l-0.013 0.132c0.966-8.081 5.042-15.061 10.976-19.817l0.059-0.046 88.276-67.862-25.379-106.483c-0.507-2.038-0.798-4.377-0.798-6.784 0-5.884 1.738-11.362 4.729-15.949l-0.069 0.113c4.216-6.501 10.838-11.136 18.577-12.66l0.182-0.030 110.345-24.276 24.828-107.034c3.215-12.919 14.715-22.342 28.416-22.342 2.447 0 4.824 0.301 7.096 0.867l-0.201-0.042 110.345 24.828 69.517-86.621c5.601-6.644 13.877-10.88 23.146-11.034h0.026c0.082-0.001 0.179-0.001 0.276-0.001 6.863 0 13.14 2.506 17.967 6.653l-0.037-0.031 87.724 68.966 101.517-48.552c3.784-1.967 8.263-3.12 13.011-3.12 11.578 0 21.555 6.859 26.088 16.735l0.073 0.179 48 99.31h110.345c0.217-0.006 0.473-0.010 0.73-0.010 7.987 0 15.182 3.395 20.22 8.82l0.016 0.017c5.448 5.316 8.828 12.732 8.828 20.936 0 0.010 0 0.020 0 0.031v-0.002 110.345l102.069 46.897c7.054 3.416 12.503 9.222 15.374 16.344l0.074 0.208c1.469 3.335 2.324 7.223 2.324 11.31s-0.855 7.976-2.396 11.495l0.072-0.185-49.103 98.207 70.621 84.966c3.027 4.364 4.837 9.772 4.837 15.603 0 1.7-0.154 3.364-0.448 4.98l0.026-0.169zM913.655 420.966c-4.277-4.981-6.88-11.506-6.88-18.64 0-4.668 1.115-9.076 3.093-12.972l-0.075 0.163 44.138-88.276-91.034-41.931c-10.158-4.565-17.104-14.595-17.104-26.246 0-0.083 0-0.166 0.001-0.249v0.013-100.414h-100.414c-11.69-0.129-21.809-6.731-26.953-16.385l-0.081-0.167-43.586-89.379-91.586 43.586c-3.74 1.864-8.147 2.955-12.809 2.955-6.856 0-13.162-2.36-18.148-6.312l-79.388-60.643-62.345 77.793c-5.557 6.702-13.86 10.96-23.16 11.034h-6.634l-99.31-23.172-22.069 96c-2.552 11.007-11.061 19.517-21.872 22.030l-0.197 0.039-99.31 21.517 23.172 96c0.589 2.15 0.928 4.619 0.928 7.167 0 9.242-4.456 17.444-11.336 22.573l-0.074 0.053-79.448 61.241 63.448 76.69c4.068 4.915 6.537 11.285 6.537 18.23 0 4.83-1.193 9.381-3.302 13.374l0.075-0.156-44.138 88.276 91.586 42.483c10.139 4.707 17.054 14.781 17.103 26.476v98.766h100.966c0.059 0 0.129-0.001 0.199-0.001 11.557 0 21.683 6.127 27.308 15.309l0.080 0.14 43.586 89.931 91.586-43.586c3.626-1.653 7.865-2.617 12.328-2.617 6.782 0 13.045 2.225 18.097 5.985l-0.081-0.057 79.448 62.345 62.897-77.793c5.506-6.794 13.85-11.102 23.2-11.102 2.139 0 4.225 0.225 6.236 0.654l-0.195-0.035 99.31 22.621 22.069-96.552c2.552-11.007 11.061-19.517 21.872-22.030l0.197-0.039 98.759-21.517-23.172-96c-0.431-1.881-0.678-4.042-0.678-6.26 0-9.296 4.338-17.579 11.1-22.935l79.509-61.288zM721.655 307.31l-140.69 371.862h-129.655c21.566-0.876 40.119-12.982 50.051-30.596l0.156-0.301 120.828-323.862c5.075-11.453 8.6-24.736 9.893-38.667l0.038-0.506c0-13.241-7.172-24.828-29.241-30.897h165.517c-22.872 9.857-40.048 29.203-46.758 52.942l-0.139 0.575zM386.207 345.931c-25.291 0-45.793-20.502-45.793-45.793s20.502-45.793 45.793-45.793c25.291 0 45.793 20.502 45.793 45.793v0c0 25.291-20.502 45.793-45.793 45.793v0z" />
<glyph unicode="&#xe92c;" glyph-name="christmas-0" d="M1015.808 632.576c-14.638 51.754-48.514 93.888-93.222 119.042l-0.986 0.51c-27.661 15.299-60.646 24.303-95.733 24.303-74.822 0-140.081-40.943-174.596-101.647l-0.519-0.992-41.472-74.496c-4.403-7.756-6.998-17.037-6.998-26.925 0-20.498 11.153-38.391 27.722-47.941l0.268-0.142c7.719-4.411 16.964-7.012 26.817-7.012 20.522 0 38.408 11.283 47.793 27.985l0.142 0.275 40.704 73.472c11.658 21.332 31.095 37.181 54.404 43.876l0.636 0.156c7.546 2.31 16.22 3.64 25.205 3.64 16.146 0 31.289-4.295 44.348-11.805l-0.433 0.229c27.766-16.289 46.114-45.992 46.114-79.98 0-16.607-4.38-32.191-12.049-45.66l0.239 0.456q-67.072-120.32-134.144-240.896l-114.176-204.8c-4.365-7.729-6.937-16.971-6.937-26.814 0-20.577 11.239-38.528 27.913-48.051l0.271-0.143c7.355-4.29 16.145-6.919 25.528-7.167l0.072-0.001c5.288 0.006 10.399 0.754 15.238 2.144l-0.39-0.096c14.224 3.966 25.84 13.164 32.884 25.338l0.14 0.262 247.808 442.624c16.247 29.237 25.811 64.121 25.811 101.239 0 21.029-3.070 41.342-8.786 60.513l0.383-1.497zM1003.52 628.992c2.601-8.764 4.758-19.265 6.052-30.031l0.092-0.945-81.152-23.040c0.005 0.377 0.008 0.822 0.008 1.268 0 9.374-1.217 18.463-3.501 27.119l0.166-0.739c0 2.304-1.792 4.352-2.56 6.4l80.128 22.784zM877.824 756.992l-190.72-54.784c34.5 37.855 84.010 61.517 139.047 61.517 18.405 0 36.192-2.646 53.002-7.579l-1.329 0.334zM668.416 532.224c-3.035-0.805-6.52-1.268-10.112-1.268s-7.077 0.462-10.397 1.331l0.285-0.063 37.632 10.752c-4.636-5.147-10.492-9.106-17.117-11.431l-0.291-0.089zM697.6 557.824l-66.816-18.944c-9.594 7.462-15.853 18.822-16.381 31.66l-0.003 0.084 105.728 29.952zM734.72 624.384l-4.864-8.448-112.896-32c0.983 3.234 2.201 6.033 3.693 8.655l-0.109-0.207 18.688 33.28 133.888 37.888c-16.212-9.244-29.315-22.264-38.393-37.91l-0.263-0.49zM647.68 642.048l14.080 25.6c3.82 6.816 7.463 12.502 11.391 17.968l-0.383-0.56 225.792 64q8.448-3.584 16.896-8.192c9.076-5.091 16.859-10.343 24.177-16.155l-0.369 0.283zM884.224 660.224c-2.56 1.792-5.12 4.096-7.936 5.632-14.517 8.374-31.928 13.314-50.493 13.314-0.249 0-0.497-0.001-0.745-0.003h0.038l125.44 35.584c9.443-8.571 17.857-17.959 25.236-28.145l0.364-0.527zM896.512 650.24l87.040 25.6c5.397-9.083 10.403-19.639 14.424-30.669l0.424-1.331-80.384-22.784c-5.763 11.437-13.134 21.178-21.953 29.382l-0.063 0.058zM740.608 35.84c-1.168-1.946-2.35-3.618-3.644-5.195l0.060 0.075-47.872-13.568-5.888 2.56c-9.692 5.545-16.868 14.555-19.896 25.303l-0.072 0.297 98.048 27.904zM770.304 89.088l-108.288-30.72c0.202 6.976 2.075 13.472 5.229 19.159l-0.109-0.215 12.032 21.504 114.432 33.024zM802.56 147.2l-114.688-32 23.552 42.24 114.688 32.512zM834.816 204.8l-114.688-32.512 23.552 42.24 114.688 32.512zM867.072 262.912l-114.432-32.512 23.552 42.24 114.432 34.56zM899.328 321.024l-114.688-32.512 23.808 44.288 114.688 32.512zM931.584 379.136l-114.688-32.512 23.552 42.24 114.688 32.512zM986.368 477.44l-22.272-40.192-114.688-32.512 23.552 42.24 114.432 32.512zM995.072 495.104l-113.152-32 23.552 42.24 102.4 28.928c-3.219-14.551-7.535-27.289-13.044-39.368l0.5 1.224zM1009.408 548.096l-94.976-26.88v1.28c6.427 10.987 10.95 23.878 12.745 37.628l0.055 0.516 82.688 23.552c0.341-4.377 0.535-9.478 0.535-14.625 0-7.202-0.38-14.314-1.122-21.319l0.075 0.872zM559.36 425.216c-0.313 0.054-0.673 0.085-1.041 0.085-2.233 0-4.199-1.144-5.344-2.877l-0.015-0.024-52.992-82.432c-5.266-8.169-8.831-17.909-9.958-28.379l-0.026-0.293c-14.171 34.987-37.053 63.963-66.010 85.121l-0.55 0.383c-32.755 23.931-73.824 38.29-118.247 38.29-111.411 0-201.728-90.317-201.728-201.728 0-6.090 0.27-12.116 0.798-18.068l-0.055 0.77c-3.613 4.041-7.644 7.584-12.061 10.606l-0.227 0.146-81.92 52.992c-0.977 0.635-2.172 1.013-3.455 1.013-3.535 0-6.4-2.865-6.4-6.4 0-0.449 0.046-0.887 0.134-1.31l-0.007 0.042 46.848-219.392c0.59-2.496 2.582-4.402 5.081-4.858l0.039-0.006c0.41-0.093 0.88-0.147 1.364-0.147 2.038 0 3.854 0.953 5.026 2.437l0.010 0.014 52.992 82.432c4.072 6.314 7.176 13.685 8.881 21.578l0.079 0.438c14.433-31.198 35.775-57.054 62.175-76.419l0.545-0.381c26.104-19.131 57.793-32.198 92.205-36.508l0.979-0.1 6.912-2.816v2.048c5.888 0 11.52-1.28 17.408-1.28 11.53 0.31 22.556 1.507 33.292 3.53l-1.292-0.202c96.57 15.008 169.611 97.566 169.611 197.183 0 8.369-0.515 16.617-1.516 24.715l0.098-0.969c4.838-6.702 10.699-12.319 17.416-16.742l0.248-0.154 81.92-53.248c0.537-0.162 1.153-0.256 1.792-0.256s1.255 0.094 1.837 0.268l-0.045-0.012c3.48 0.071 6.274 2.909 6.274 6.399 0 0.454-0.047 0.896-0.137 1.323l0.007-0.042-46.848 219.392c-0.714 1.84-2.2 3.243-4.051 3.828l-0.045 0.012zM409.6 390.912l-133.376-335.36c-28.96 4.063-54.94 14.204-77.498 29.105l0.698-0.433 133.376 336.128c29.018-4.303 54.981-14.699 77.463-29.862l-0.663 0.422zM102.4 141.056l-46.080-69.376-40.448 188.928 68.864-44.8c14.901-9.893 24.591-26.602 24.591-45.575 0-10.825-3.154-20.912-8.593-29.395l0.131 0.218zM119.296 208.896c-1.237 8.074-1.944 17.389-1.944 26.869 0 93.367 68.564 170.72 158.088 184.456l1.040 0.131c8.963 1.467 19.294 2.305 29.821 2.305 0.226 0 0.452 0 0.678-0.001h-0.035c4.864 0 9.728 0 14.592 0l-133.12-331.008c-37.048 27.814-62.878 68.833-70.517 115.951l-0.139 1.041zM333.312 55.296c-8.861-1.443-19.073-2.267-29.479-2.267-4.761 0-9.481 0.173-14.155 0.512l0.626-0.036 129.536 330.496c36.263-27.797 61.507-68.396 68.983-114.934l0.137-1.034c1.299-8.271 2.040-17.809 2.040-27.521 0-93.037-68.080-170.173-157.14-184.308l-1.061-0.139zM528.128 257.28c-15.099 9.863-24.938 26.683-24.938 45.801 0 11.051 3.287 21.334 8.937 29.924l-0.127-0.206 44.544 69.376 40.448-188.928zM198.144 492.288c1.167-1.709 3.105-2.816 5.303-2.816 0.026 0 0.052 0 0.077 0h1.276c2.418 0.38 4.363 2.069 5.107 4.307l0.013 0.045 20.48 66.304c0.37 2.193 0.581 4.72 0.581 7.296s-0.211 5.103-0.618 7.564l0.036-0.268c10.37-7.485 22.673-13.016 35.992-15.766l0.616-0.106c7.465-1.629 16.039-2.562 24.832-2.562 0.27 0 0.54 0.001 0.81 0.003h-0.042c39.512 1.275 75.626 14.828 104.912 36.944l-0.464-0.336c68.608 49.408 100.352 131.328 73.216 186.368 3.802-1.387 8.191-2.225 12.765-2.304h65.571c3.456 0.101 6.219 2.926 6.219 6.397 0 1.339-0.411 2.581-1.114 3.609l0.014-0.022-72.192 106.24c-1.177 1.604-3.056 2.634-5.175 2.634-0.342 0-0.678-0.027-1.006-0.079l0.036 0.005c-2.418-0.38-4.363-2.069-5.107-4.307l-0.013-0.045-20.224-66.048c-1.304-4.047-2.056-8.702-2.056-13.533 0-1.726 0.096-3.429 0.283-5.105l-0.019 0.206c-11.157 9.207-24.713 15.922-39.582 19.091l-0.61 0.109c-7.421 1.144-15.981 1.798-24.694 1.798-39.587 0-76.023-13.492-104.961-36.128l0.375 0.282c-68.096-49.664-99.584-129.28-73.984-184.32-1.228 0.124-2.654 0.195-4.096 0.195s-2.868-0.071-4.274-0.21l0.178 0.014h-65.536c-3.456-0.101-6.219-2.926-6.219-6.397 0-1.339 0.411-2.581 1.114-3.609l-0.014 0.022zM462.080 821.76l16.384 53.504 59.136-84.736h-53.504c-0.383-0.023-0.83-0.036-1.28-0.036-6.995 0-13.245 3.188-17.377 8.19l-0.031 0.038c-2.938 4.111-4.697 9.24-4.697 14.78 0 2.957 0.501 5.797 1.424 8.44l-0.055-0.18zM285.952 781.824c27.023 20.512 60.952 33.235 97.803 34.298l0.245 0.006c0.068 0 0.148 0 0.228 0 7.896 0 15.596-0.839 23.016-2.433l-0.717 0.129c21.789-4.227 39.945-17.182 51.011-35.001l0.189-0.327c29.184-49.408 0-128-66.816-175.104-26.509-20.916-60.4-33.55-97.241-33.55-7.78 0-15.428 0.563-22.907 1.652l0.852-0.102c-21.789 4.227-39.945 17.182-51.011 35.001l-0.189 0.327c-30.208 49.152-0.256 127.744 65.536 175.104zM195.584 595.968v0c0.383 0.023 0.83 0.036 1.28 0.036 6.995 0 13.245-3.188 17.377-8.19l0.031-0.038c2.744-4.017 4.382-8.979 4.382-14.323 0-3.416-0.669-6.676-1.884-9.656l0.062 0.171-16.384-53.504-58.88 84.736z" />
<glyph unicode="&#xe92d;" glyph-name="christmas-1" d="M353.024 529.664c-41.567 0.058-75.986 30.589-82.117 70.448l-0.059 0.464c-0.568 3.654-0.893 7.868-0.893 12.158 0 41.658 30.617 76.166 70.576 82.248l0.462 0.058c3.589 0.549 7.731 0.862 11.945 0.862 41.556 0 75.997-30.467 82.203-70.282l0.060-0.468c0.591-3.719 0.928-8.007 0.928-12.374 0-41.62-30.655-76.081-70.618-82.034l-0.454-0.056c-3.583-0.602-7.744-0.973-11.981-1.024h-0.051zM353.024 683.264c-1.571 0.123-3.401 0.194-5.248 0.194s-3.677-0.070-5.489-0.209l0.241 0.015c-36.126-3.283-64.212-33.425-64.212-70.127 0-38.881 31.519-70.4 70.4-70.4 5.152 0 10.175 0.553 15.012 1.604l-0.464-0.085c35.043 4.252 61.928 33.817 61.928 69.661 0 38.739-31.405 70.144-70.144 70.144-0.712 0-1.421-0.011-2.128-0.032l0.104 0.002zM375.808 378.112c-41.526 0.17-75.883 30.643-82.115 70.441l-0.061 0.471c-0.568 3.654-0.893 7.868-0.893 12.158 0 41.658 30.617 76.166 70.576 82.248l0.462 0.058c3.74 0.596 8.053 0.936 12.446 0.936 41.583 0 76.040-30.505 82.215-70.358l0.059-0.466c0.568-3.654 0.893-7.868 0.893-12.158 0-41.658-30.617-76.166-70.576-82.248l-0.462-0.058c-3.751-0.623-8.093-0.994-12.515-1.024h-0.029zM375.808 531.712c-1.571 0.123-3.401 0.194-5.248 0.194s-3.677-0.070-5.489-0.209l0.241 0.015c-36.126-3.283-64.212-33.425-64.212-70.127 0-38.881 31.519-70.4 70.4-70.4 5.152 0 10.175 0.553 15.012 1.604l-0.464-0.085c35.043 4.252 61.928 33.817 61.928 69.661 0 38.739-31.405 70.144-70.144 70.144-0.712 0-1.421-0.011-2.128-0.032l0.104 0.002zM230.4 435.2c-41.526 0.17-75.883 30.643-82.115 70.441l-0.061 0.471c-0.465 3.299-0.73 7.11-0.73 10.983 0 41.277 30.151 75.512 69.631 81.881l0.476 0.063c3.847 0.631 8.282 0.991 12.8 0.991 45.932 0 83.167-37.235 83.167-83.167 0-41.413-30.27-75.757-69.891-82.113l-0.475-0.063c-0.907-0.035-1.973-0.055-3.043-0.055-3.438 0-6.828 0.206-10.158 0.606l0.402-0.039zM230.4 588.8h-10.496c-34.216-5.182-60.138-34.388-60.138-69.648 0-3.607 0.271-7.151 0.795-10.613l-0.048 0.389c5.534-34.121 34.784-59.857 70.045-59.857 3.557 0 7.053 0.262 10.47 0.768l-0.387-0.047c30.21 8.262 52.047 35.465 52.047 67.769 0 35.971-27.077 65.618-61.961 69.672l-0.327 0.031zM199.68 486.4c-2.087 0-3.94 0.999-5.108 2.544l-0.012 0.016c-3.235 4.219-5.778 9.167-7.345 14.531l-0.079 0.317c-0.058 0.842-0.091 1.825-0.091 2.816s0.033 1.974 0.098 2.948l-0.007-0.132c-0.241 1.766-0.379 3.808-0.379 5.882 0 22.912 16.816 41.897 38.779 45.286l0.256 0.033c0.253 0.035 0.545 0.056 0.842 0.056 3.193 0 5.84-2.338 6.322-5.395l0.005-0.036c0.035-0.253 0.056-0.545 0.056-0.842 0-3.193-2.338-5.84-5.395-6.322l-0.036-0.005c-16.469-2.031-29.094-15.936-29.094-32.789 0-1.165 0.060-2.315 0.178-3.448l-0.012 0.142c-0.037-0.612-0.057-1.328-0.057-2.048s0.021-1.436 0.062-2.146l-0.005 0.098c1.187-4.115 3.029-7.698 5.432-10.829l-0.056 0.077c1.131-1.153 1.829-2.735 1.829-4.48s-0.698-3.327-1.83-4.481l0.001 0.001c-1.128-1.089-2.659-1.767-4.347-1.792h-0.005zM529.152 430.336c-3.555 0.019-6.789 1.377-9.227 3.594l0.011-0.010-39.68 34.816-27.392-4.096c-0.319-0.059-0.686-0.092-1.061-0.092-3.155 0-5.755 2.378-6.104 5.44l-0.003 0.028c-0.035 0.253-0.056 0.545-0.056 0.842 0 3.193 2.338 5.84 5.395 6.322l0.036 0.005 30.208 4.608c0.292 0.049 0.628 0.077 0.97 0.077 1.602 0 3.060-0.613 4.154-1.617l-0.004 0.004 41.728-36.864h1.792l29.44 47.36c7.076 14.956 21.879 25.202 39.117 25.599l0.051 0.001c13.209-0.297 24.967-6.266 32.975-15.558l0.049-0.058 32.512-25.6h1.536l19.968 34.304c9.409 23.731 23.436 43.841 41.098 60.053l0.118 0.107c12.864 11.463 27.867 20.877 44.283 27.535l1.029 0.369c-18.871 1.68-36.241 6.415-52.188 13.718l0.988-0.406c-23.527 11.136-43.275 26.706-58.9 45.783l-0.236 0.297-27.136 25.6-7.168 3.328 5.376-3.584-23.808-35.328c-4.989-11.029-14.089-19.461-25.294-23.457l-0.306-0.095c-3.358-0.907-7.213-1.428-11.19-1.428-13.95 0-26.402 6.413-34.57 16.451l-0.064 0.082-40.96 35.84h-2.56l-25.6-46.080c-0.931-1.74-2.596-2.983-4.57-3.323l-0.038-0.005-34.56-5.12c-0.319-0.059-0.686-0.092-1.061-0.092-3.155 0-5.755 2.378-6.104 5.44l-0.003 0.028c-0.035 0.253-0.056 0.545-0.056 0.842 0 3.193 2.338 5.84 5.395 6.322l0.036 0.005 31.232 4.608 23.808 43.264c2.45 4.357 7.044 7.253 12.314 7.253 3.52 0 6.739-1.292 9.208-3.428l-0.018 0.015 41.728-36.608c5.628-6.745 14.036-11.005 23.44-11.005 12.278 0 22.86 7.264 27.682 17.728l0.078 0.189 25.6 36.096c2.582 3.626 6.77 5.963 11.505 5.963 3.783 0 7.218-1.492 9.748-3.92l-0.005 0.005 27.648-26.88c14.743-18.17 33.125-32.784 54.101-42.858l0.939-0.406c20.293-8.392 43.857-13.265 68.559-13.265 8.23 0 16.334 0.541 24.278 1.589l-0.933-0.101 12.288 1.792c3.535 0 6.4-2.865 6.4-6.4 0-2.896-1.924-5.343-4.563-6.132l-0.045-0.012-12.032-1.792c-32.495-5.133-61.206-18.497-84.786-37.876l0.306 0.244c-16.588-15.279-29.662-34.108-38.046-55.304l-0.354-1.016-20.48-35.328c-2.429-4.185-6.889-6.954-11.996-6.954-3.327 0-6.379 1.175-8.764 3.133l0.024-0.019-33.28 25.6c-6.102 7.371-15.253 12.032-25.494 12.032-0.037 0-0.075 0-0.112 0h0.006c-12.446-0.467-23.018-8.031-27.823-18.743l-0.081-0.201-29.696-48.128c-2.124-3.392-5.598-5.771-9.651-6.39l-0.077-0.010zM486.4 548.608c-3.535 0-6.4 2.865-6.4 6.4s2.865 6.4 6.4 6.4v0l120.832 17.92c3.535 0 6.4-2.865 6.4-6.4 0-2.896-1.924-5.343-4.563-6.132l-0.045-0.012-120.832-17.92zM641.536 571.648c-3.535 0-6.4 2.865-6.4 6.4s2.865 6.4 6.4 6.4v0l34.56 5.12c0.253 0.035 0.545 0.056 0.842 0.056 3.193 0 5.84-2.338 6.322-5.395l0.005-0.036c0.035-0.253 0.056-0.545 0.056-0.842 0-3.193-2.338-5.84-5.395-6.322l-0.036-0.005-34.56-5.12zM187.904 575.488c-2.087 0-3.94 0.999-5.108 2.544l-0.012 0.016-19.456 25.6h-49.408c-4.401 0.029-8.335 2.001-10.992 5.1l-0.016 0.020c-1.958 2.368-3.145 5.434-3.145 8.778 0 1.062 0.12 2.097 0.347 3.090l-0.018-0.093 11.264 54.016c1.015 2.983 1.6 6.42 1.6 9.993 0 8.532-3.339 16.284-8.782 22.021l0.013-0.014c-5.779 5.212-13.471 8.401-21.908 8.401-1.301 0-2.584-0.076-3.845-0.223l0.153 0.015-42.752 2.048c-7.282 0.436-13.023 6.448-13.023 13.801 0 1.283 0.175 2.525 0.502 3.704l-0.023-0.097 9.984 38.656c6.911 17.059 10.921 36.845 10.921 57.567 0 4.066-0.154 8.095-0.458 12.083l0.032-0.53c-4.514 32.512-16.997 61.477-35.4 85.698l0.328-0.45c-4.608 5.632-7.168 9.472-8.704 9.984-0.742 1.075-1.185 2.406-1.185 3.84 0 3.765 3.052 6.817 6.817 6.817 2.33 0 4.388-1.169 5.617-2.954l0.015-0.023s3.328-3.84 7.424-9.472c19.394-24.228 44.607-43.020 73.555-54.371l1.197-0.413c13.63-4.479 29.316-7.063 45.607-7.063 7.937 0 15.73 0.613 23.336 1.795l-0.847-0.108h40.704c7.628-0.010 13.807-6.195 13.807-13.824 0-0.905-0.087-1.79-0.253-2.647l0.014 0.087-6.912-42.24c-1.396-3.52-2.206-7.599-2.206-11.867 0-5.581 1.384-10.839 3.828-15.448l-0.087 0.179c5.693-9.071 15.641-15.013 26.977-15.013 1.138 0 2.262 0.060 3.369 0.177l-0.138-0.012 56.576-2.048c7.453-0.402 13.344-6.543 13.344-14.061 0-1.004-0.105-1.983-0.305-2.927l0.016 0.092-10.752-51.2 17.152-21.76c1.081-1.144 1.746-2.691 1.746-4.393 0-3.535-2.865-6.4-6.4-6.4-2.215 0-4.166 1.125-5.315 2.834l-0.015 0.023-18.944 24.064c-0.374 0.788-0.592 1.713-0.592 2.688s0.218 1.9 0.608 2.727l-0.017-0.039 11.52 54.528v1.28l-58.112 1.792c-1.099-0.096-2.377-0.151-3.669-0.151-16.044 0-30.107 8.482-37.949 21.207l-0.11 0.192c-3.399 6.12-5.399 13.422-5.399 21.192 0 5.345 0.947 10.468 2.682 15.212l-0.098-0.308 6.656 40.96v1.28h-40.96c-7.153-1.12-15.403-1.761-23.803-1.761-17.561 0-34.469 2.798-50.301 7.972l1.144-0.324c-17.865 6.187-33.325 14.878-46.884 25.828l0.292-0.228c7.076-14.935 11.982-32.286 13.773-50.551l0.051-0.649c0.296-3.75 0.465-8.12 0.465-12.529 0-22.018-4.212-43.053-11.873-62.342l0.4 1.142-9.728-35.84v-1.536l42.496-3.328c1.777 0.255 3.828 0.401 5.914 0.401 11.099 0 21.233-4.131 28.95-10.938l-0.048 0.041c8.080-8.025 13.081-19.141 13.081-31.426 0-5.347-0.948-10.472-2.684-15.218l0.098 0.308-11.008-54.272v-1.28l53.76-0.512c0.157 0.016 0.34 0.026 0.525 0.026 1.938 0 3.636-1.025 4.582-2.562l0.013-0.023 21.504-27.392c0.799-1.056 1.28-2.392 1.28-3.84 0-3.535-2.865-6.4-6.4-6.4v0zM221.44 660.224c-2.087 0-3.94 0.999-5.108 2.544l-0.012 0.016-75.008 95.744c-1.081 1.144-1.746 2.691-1.746 4.393 0 3.535 2.865 6.4 6.4 6.4 2.215 0 4.166-1.125 5.315-2.834l0.015-0.023 75.264-96c0.799-1.056 1.28-2.392 1.28-3.84 0-3.535-2.865-6.4-6.4-6.4v0zM124.672 783.616c-2.087 0-3.94 0.999-5.108 2.544l-0.012 0.016-21.504 27.392c-1.081 1.144-1.746 2.691-1.746 4.393 0 3.535 2.865 6.4 6.4 6.4 2.215 0 4.166-1.125 5.315-2.834l0.015-0.023 21.76-27.904c0.799-1.056 1.28-2.392 1.28-3.84 0-3.535-2.865-6.4-6.4-6.4v0zM140.288 36.864h-2.304c-2.442 0.939-4.143 3.265-4.143 5.989 0 0.696 0.111 1.365 0.316 1.992l-0.013-0.045s1.536 4.864 4.352 11.52c7.026 18.647 11.093 40.202 11.093 62.706 0 10.401-0.869 20.599-2.538 30.526l0.149-1.072c-5.392 23.984-15.729 44.99-29.933 62.771l0.237-0.307-20.736 33.536c-1.549 2.202-2.475 4.94-2.475 7.893 0 5.563 3.285 10.358 8.022 12.551l0.086 0.036 40.704 16.64c9.584 1.752 17.589 7.405 22.446 15.219l0.082 0.141c2.308 4.27 3.664 9.348 3.664 14.742 0 7.081-2.337 13.616-6.283 18.876l0.059-0.082-27.136 48.128c-1.147 1.971-1.824 4.339-1.824 6.864 0 6.372 4.311 11.737 10.176 13.337l0.097 0.023 47.616 13.312 11.264 29.44c0.954 2.441 3.287 4.138 6.016 4.138 3.558 0 6.442-2.884 6.442-6.442 0-0.828-0.156-1.62-0.441-2.348l0.015 0.044-12.544-32.512c-0.714-1.84-2.2-3.243-4.051-3.828l-0.045-0.012-51.2-14.592-6.4-4.608 6.144 2.56 25.6-48.384c5.198-7.138 8.316-16.081 8.316-25.752 0-7.633-1.942-14.812-5.359-21.070l0.115 0.23c-6.494-10.934-17.254-18.755-29.928-21.203l-0.28-0.045-38.4-15.104-5.888-5.12 5.376 3.328 21.248-32.256c14.854-18.808 25.891-41.346 31.526-65.944l0.218-1.128c2.047-9.553 3.219-20.528 3.219-31.776 0-7.482-0.519-14.843-1.522-22.048l0.095 0.832c10.248 14.926 22.554 27.557 36.68 37.839l0.44 0.305c19.494 13.577 42.78 23.158 67.949 27.021l0.915 0.115 37.12 11.776v1.536l-18.944 38.144c-5.28 7.089-8.453 16.019-8.453 25.69 0 3.325 0.375 6.562 1.085 9.672l-0.056-0.29c4.278 16.583 17.456 29.248 34.014 32.717l0.29 0.051 51.2 17.92v1.536l-25.6 48.896c-0.374 0.788-0.592 1.713-0.592 2.688s0.218 1.9 0.608 2.727l-0.017-0.039 11.52 27.136c0.954 2.441 3.287 4.138 6.016 4.138 3.558 0 6.442-2.884 6.442-6.442 0-0.828-0.156-1.62-0.441-2.348l0.015 0.044-9.984-25.6 25.6-46.080c1.139-1.966 1.811-4.325 1.811-6.841 0-6.085-3.932-11.252-9.394-13.099l-0.097-0.029-52.736-18.176c-14.868-2.049-26.196-14.672-26.196-29.94 0-7.090 2.442-13.609 6.531-18.762l-0.048 0.062 19.712-39.168c0.925-1.805 1.466-3.937 1.466-6.196 0-6.241-4.136-11.516-9.817-13.234l-0.098-0.025-37.888-11.776c-24.45-3.779-46.261-12.814-65.008-25.929l0.496 0.329c-24.349-19.044-43.296-43.916-54.877-72.555l-0.419-1.173c-2.304-6.656-4.096-11.008-4.352-11.52-1.163-1.738-3.118-2.867-5.337-2.867-0.285 0-0.565 0.019-0.84 0.055l0.032-0.003zM221.952 248.064h-2.304c-2.321 0.995-3.917 3.261-3.917 5.899 0 0.729 0.122 1.43 0.346 2.082l-0.013-0.045 44.032 113.664c0.954 2.441 3.287 4.138 6.016 4.138 3.558 0 6.442-2.884 6.442-6.442 0-0.828-0.156-1.62-0.441-2.348l0.015 0.044-44.032-112.896c-0.951-2.418-3.265-4.098-5.972-4.098-0.061 0-0.121 0.001-0.181 0.003h0.009zM196.864 183.040h-2.304c-2.364 0.976-3.996 3.263-3.996 5.932 0 0.812 0.151 1.589 0.427 2.304l-0.015-0.044 13.824 33.024c0.954 2.441 3.287 4.138 6.016 4.138 3.558 0 6.442-2.884 6.442-6.442 0-0.828-0.156-1.62-0.441-2.348l0.015 0.044-12.544-32.512c-0.91-2.498-3.264-4.25-6.028-4.25-0.495 0-0.976 0.056-1.439 0.162l0.043-0.008zM386.048 634.88c-2.087 0-3.94 0.999-5.108 2.544l-0.012 0.016c-7.352 9.922-19.022 16.282-32.177 16.282-2.015 0-3.995-0.149-5.929-0.437l0.219 0.027c-5.889-0.911-11.159-2.983-15.771-5.982l0.155 0.094c-0.911-0.529-2.005-0.841-3.171-0.841-3.535 0-6.4 2.865-6.4 6.4 0 2.13 1.040 4.017 2.641 5.18l0.018 0.013c2.568 1.686 5.517 3.233 8.616 4.485l0.344 0.123c5.742 2.335 12.403 3.69 19.381 3.69 17.419 0 32.866-8.446 42.469-21.466l0.102-0.145c0.799-1.056 1.28-2.392 1.28-3.84 0-3.535-2.865-6.4-6.4-6.4v0zM303.104 601.088c-0.024 0-0.053-0.001-0.082-0.001-3.173 0-5.807 2.309-6.312 5.339l-0.005 0.037c-0.163 1.535-0.257 3.317-0.257 5.12s0.093 3.585 0.275 5.34l-0.018-0.22c0.178 3.812 0.728 7.407 1.616 10.865l-0.080-0.369c0.72 2.805 3.226 4.846 6.208 4.846 0.615 0 1.21-0.087 1.773-0.249l-0.045 0.011c2.774-0.742 4.783-3.232 4.783-6.192 0-0.528-0.064-1.041-0.184-1.531l0.009 0.044c-0.132-1.19-0.207-2.57-0.207-3.968s0.075-2.778 0.222-4.136l-0.015 0.168c-0.116-1.151-0.182-2.488-0.182-3.84s0.066-2.689 0.195-4.007l-0.013 0.167c0.035-0.253 0.056-0.545 0.056-0.842 0-3.193-2.338-5.84-5.395-6.322l-0.036-0.005zM407.040 413.952c-3.535 0-6.4 2.865-6.4 6.4 0 2.087 0.999 3.94 2.544 5.108l0.016 0.012c2.88 2.207 5.4 4.646 7.617 7.345l0.063 0.079c1.193 1.446 2.986 2.361 4.992 2.361 3.566 0 6.457-2.891 6.457-6.457 0-1.56-0.553-2.991-1.474-4.107l0.009 0.011c-2.96-3.544-6.235-6.657-9.834-9.364l-0.15-0.108c-1.056-0.799-2.392-1.28-3.84-1.28v0zM426.24 444.16h-1.28c-2.895 0.653-5.026 3.203-5.026 6.251 0 0.507 0.059 1 0.17 1.473l-0.009-0.043c0.583 2.718 0.917 5.841 0.917 9.042 0 7.544-1.854 14.654-5.131 20.901l0.118-0.247c-0.447 0.856-0.709 1.869-0.709 2.944 0 3.573 2.896 6.469 6.469 6.469 2.498 0 4.665-1.416 5.743-3.489l0.017-0.036c2.689-5.196 4.664-11.233 5.595-17.608l0.037-0.312c0.592-3.079 0.93-6.62 0.93-10.24s-0.338-7.161-0.985-10.593l0.055 0.353c-0.7-2.833-3.219-4.901-6.222-4.901-0.243 0-0.483 0.014-0.719 0.040l0.029-0.003zM343.040-51.2c-131.84 0-230.4 31.232-233.216 78.592 0.126 17.456 8.714 32.88 21.862 42.39l0.154 0.106c43.264 38.144 146.432 68.608 262.912 76.8 17.842 1.591 38.596 2.499 59.562 2.499 54.096 0 106.782-6.040 157.419-17.482l-4.757 0.904c61.952-15.36 97.28-38.912 99.328-66.304s-28.672-53.504-89.088-75.264c-61.070-21.231-131.797-35.75-205.172-40.575l-2.444-0.129c-23.040-1.536-45.312-1.536-66.56-1.536zM455.168 136.704c-19.712 0-39.68 0-59.648-2.304-113.92-8.448-214.272-37.632-256-73.984-10.263-7.195-17.049-18.745-17.661-31.909l-0.003-0.091c3.072-41.216 118.784-76.8 285.952-64.256 74.691 4.594 144.501 18.673 210.455 41.093l-5.655-1.669c52.736 19.2 82.176 41.728 80.64 62.208v0c-1.536 20.992-35.072 41.472-89.856 55.040-41.314 9.496-88.756 14.938-137.47 14.938-3.781 0-7.555-0.033-11.321-0.098l0.566 0.008zM140.8 60.416l-10.24 7.936 42.24 54.528c21.876 28.239 38.227 61.923 46.762 98.608l0.342 1.744 41.472 184.32c23.52 55.439 77.493 93.618 140.383 93.618 57.503 0 107.552-31.918 133.396-79.004l0.397-0.789 45.056-169.728c12.271-45.481 35.33-84.547 66.317-115.725l-0.013 0.013 32.768-33.536-8.96-8.96-32.768 34.56c-32.359 32.421-56.54 73.015-69.18 118.417l-0.452 1.903-44.544 168.192c-24.324 43.005-69.752 71.56-121.849 71.56-57.214 0-106.385-34.439-127.913-83.717l-0.35-0.899-41.216-183.040c-9.383-40.398-26.62-75.797-50.125-106.090l0.461 0.618zM379.904-11.008c-28.672 0-54.272 46.336-58.624 107.008-0.465 5.557-0.731 12.028-0.731 18.56s0.265 13.003 0.786 19.401l-0.055-0.841h12.8c-0.441-5.251-0.693-11.364-0.693-17.536s0.252-12.285 0.745-18.33l-0.052 0.794c4.096-57.856 27.648-96.768 46.848-95.232 9.472 0 18.432 11.008 25.6 28.672 4.953 15.814 7.807 33.998 7.807 52.848 0 6.361-0.325 12.647-0.959 18.841l0.064-0.777c-0.893 13.122-2.804 25.282-5.681 37.064l0.305-1.48v3.584l12.288 3.328v-3.84c2.83-11.205 4.924-24.414 5.849-37.943l0.039-0.713c0.503-5.251 0.79-11.353 0.79-17.522 0-21.178-3.379-41.566-9.628-60.656l0.39 1.378c-8.192-22.784-20.992-36.096-35.84-37.12zM244.48 281.6l-6.656 11.008c53.756 33.484 119.014 53.336 188.909 53.336 47.941 0 93.701-9.34 135.56-26.299l-2.421 0.867-4.608-11.776c-38.004 15.49-82.098 24.48-128.292 24.48-67.532 0-130.577-19.213-183.966-52.472l1.475 0.856zM228.352 212.224l-6.912 10.752c59.226 37.68 131.391 60.052 208.782 60.052 51.542 0 100.767-9.923 145.867-27.963l-2.649 0.935-4.608-12.032c-40.905 16.404-88.325 25.919-137.966 25.919-75.091 0-145.097-21.771-204.050-59.346l1.536 0.915zM755.2 9.216c-0.088-0.001-0.192-0.001-0.296-0.001-5.842 0-11.375 1.322-16.316 3.683l0.228-0.098c-14.129 8.478-23.859 23.039-25.582 39.969l-0.018 0.223c-11.776 56.832 12.8 162.048 62.208 268.544 53.76 115.2 132.864 213.248 187.648 232.96 5.173 2.26 11.201 3.575 17.536 3.575s12.363-1.315 17.826-3.687l-0.29 0.112c54.272-25.6 16.896-182.528-45.824-317.184-54.016-115.712-125.44-206.080-177.408-225.024-5.506-1.956-11.857-3.086-18.471-3.086-0.436 0-0.871 0.005-1.305 0.015l0.065-0.001zM982.016 545.28c-5.388-0.183-10.464-1.294-15.147-3.178l0.299 0.106c-51.2-18.688-128-113.92-179.2-226.56-48.64-103.936-72.704-206.336-61.44-260.352 1.128-13.175 8.34-24.457 18.78-31.134l0.164-0.098c3.779-1.632 8.179-2.582 12.8-2.582s9.021 0.949 13.015 2.664l-0.215-0.082c48.384 17.408 118.272 107.264 170.24 218.368 67.328 144.128 91.136 281.6 51.2 300.032v0c-3.035 1.67-6.633 2.699-10.461 2.815l-0.035 0.001zM473.6 476.672l-12.8 4.608c21.67 58.581 77.049 99.585 142.005 99.585 0.206 0 0.413 0 0.619-0.001h2.272l169.728-43.264c19.884-5.599 42.718-8.818 66.304-8.818s46.42 3.219 68.088 9.241l-1.784-0.423 44.544 12.544 3.328-12.288-44.544-12.544c-20.881-5.884-44.862-9.267-69.632-9.267s-48.75 3.383-71.504 9.711l1.872-0.444-167.424 44.032c-0.22 0.001-0.479 0.002-0.739 0.002-59.975 0-111.012-38.263-130.033-91.71l-0.299-0.964zM713.216 51.2l-25.6 63.744c-15.15 35.725-36.741 66.017-63.562 90.714l-0.182 0.166-48.128 44.032 8.704 9.472 48.128-44.032c28.319-26.127 50.953-57.956 66.145-93.71l0.671-1.778 25.6-63.744zM860.16 212.48c-28.231 1.286-54.473 8.616-77.846 20.717l1.046-0.493c-12.349 5.894-22.836 12.032-32.756 18.93l0.756-0.498 7.424 10.496c8.651-6.044 18.551-11.841 28.908-16.842l1.3-0.566c19.609-11.353 43.14-18.053 68.236-18.053 8.637 0 17.089 0.794 25.287 2.312l-0.851-0.131c5.453 1.543 9.883 5.139 12.491 9.878l0.053 0.106c8.192 17.152-19.2 53.504-71.168 78.336-9.355 4.635-20.479 8.989-32.004 12.41l-1.532 0.39h-2.816l2.816 12.544-1.792-6.144 2.304 5.888h3.072c13.767-4.060 25.482-8.673 36.685-14.169l-1.357 0.601c55.808-25.6 89.856-68.608 76.8-95.488-4.1-7.918-11.059-13.876-19.476-16.575l-0.236-0.065c-6.877-2.296-14.794-3.62-23.021-3.62-0.817 0-1.631 0.013-2.442 0.039l0.118-0.003zM571.136 256c-0.133 3.686-0.209 8.017-0.209 12.366 0 113.88 51.962 215.623 133.47 282.813l0.627 0.501 8.192-9.984c-78.578-65.269-128.243-163.001-128.243-272.333 0-4.609 0.088-9.198 0.263-13.765l-0.020 0.658zM623.872 207.616c-0.262 5.404-0.412 11.736-0.412 18.104 0 123.248 55.974 233.423 143.889 306.49l0.651 0.526 8.192-9.728c-85.436-71.222-139.411-177.683-139.411-296.75 0-6.197 0.146-12.359 0.435-18.484l-0.033 0.866z" />
<glyph unicode="&#xe92e;" glyph-name="christmas-2" horiz-adv-x="976" d="M452.608-64c-153.6 0-276.48 145.408-276.48 323.84-0.010 1.007-0.016 2.197-0.016 3.389 0 90.944 34.514 173.827 91.159 236.265l-0.262-0.294c1.174 1.638 3.073 2.693 5.217 2.693 3.535 0 6.4-2.865 6.4-6.4 0-2.016-0.932-3.814-2.389-4.987l-0.012-0.010c-54.317-59.879-87.566-139.736-87.566-227.359 0-1.069 0.005-2.137 0.015-3.204l-0.001 0.163c0.256-170.496 118.528-311.296 263.936-311.296s264.192 140.8 264.192 311.040c0.059 2.329 0.092 5.073 0.092 7.824 0 94.13-39.291 179.082-102.366 239.353l-0.126 0.12c-1.281 1.179-2.080 2.864-2.080 4.736 0 3.552 2.88 6.432 6.432 6.432 1.681 0 3.211-0.645 4.357-1.7l-0.005 0.004c66.461-62.868 107.826-151.675 107.826-250.143 0-2.059-0.018-4.114-0.054-6.165l0.004 0.308c-1.536-179.2-125.696-324.608-278.272-324.608zM342.528 636.16c0-11.735-9.513-21.248-21.248-21.248s-21.248 9.513-21.248 21.248c0 11.735 9.513 21.248 21.248 21.248s21.248-9.513 21.248-21.248zM582.144 636.16c0-11.735-9.513-21.248-21.248-21.248s-21.248 9.513-21.248 21.248c0 11.735 9.513 21.248 21.248 21.248s21.248-9.513 21.248-21.248zM393.728 504.576c-2.162 0.065-4.18 0.625-5.961 1.572l0.073-0.036c-4.414 2.229-7.389 6.728-7.389 11.922 0 0.854 0.080 1.688 0.234 2.497l-0.013-0.083 14.336 75.264c3.236 13.311 15.054 23.040 29.144 23.040 0.014 0 0.028 0 0.043 0h-0.002c19.499-0.016 35.3-15.827 35.3-35.328 0-6.924-1.992-13.382-5.433-18.834l0.086 0.146-51.2-56.064c-2.323-2.459-5.58-4.015-9.201-4.096h-0.015zM424.192 606.976c-8.012-0.008-14.738-5.508-16.615-12.938l-0.025-0.118-14.336-75.008 51.2 54.528c1.807 3.169 2.873 6.964 2.873 11.008 0 12.442-10.086 22.528-22.528 22.528-0.020 0-0.040 0-0.060 0h0.003zM746.496 412.672c-23.552 31.232-70.4 109.824-93.952 141.056-5.376-3.84-12.544-8.96-20.736-14.080 2.358 11.349 3.707 24.392 3.707 37.75 0 44.779-15.167 86.015-40.645 118.851l0.329-0.441c-1.18 1.561-3.033 2.56-5.12 2.56-3.535 0-6.4-2.865-6.4-6.4 0-1.448 0.481-2.784 1.292-3.856l-0.012 0.016c23.514-30.028 37.706-68.339 37.706-109.964 0-16.987-2.364-33.423-6.78-48.995l0.306 1.263c-43.687-25.472-95.335-42.365-150.469-47.013l-1.339-0.091c-8.73-0.735-18.893-1.154-29.154-1.154-61.011 0-118.563 14.811-169.256 41.034l2.058-0.968c-5.412 16.447-8.533 35.377-8.533 55.036 0 41.917 14.189 80.519 38.026 111.267l-0.309-0.415c0.799 1.056 1.28 2.392 1.28 3.84 0 3.535-2.865 6.4-6.4 6.4-2.087 0-3.94-0.999-5.108-2.544l-0.012-0.016c-25.112-32.381-40.257-73.589-40.257-118.334 0-21.768 3.584-42.698 10.195-62.234l-0.402 1.368 20.224-80.64c42.003-23.352 90.804-43.986 141.901-59.307l5.299-1.365c25.033-28.028 54.906-51.114 88.405-68.080l1.707-0.784c47.596-24.086 103.763-38.194 163.225-38.194 7.15 0 14.253 0.204 21.303 0.607l-0.975-0.044c-6.912 25.6-16.896 88.064-23.808 116.224 27.502 6.369 51.758 15.882 74.122 28.375l-1.418-0.727zM522.24 387.072c-50.089 17.066-91.306 49.259-119.279 91.065l-0.529 0.839c33.524-35.307 75.065-62.669 121.73-79.201l2.174-0.671c21.155-7.473 45.7-12.747 71.158-14.782l1.034-0.066c7.037-0.52 15.245-0.816 23.522-0.816 18.081 0 35.832 1.414 53.148 4.136l-1.919-0.248c-22.856-8.338-49.241-13.16-76.753-13.16-26.689 0-52.319 4.538-76.159 12.885l1.616-0.493zM593.664 688.64c-3.535 0-6.4 2.865-6.4 6.4v0 252.16h-292.608v-252.16c0-3.535-2.865-6.4-6.4-6.4s-6.4 2.865-6.4 6.4v0 258.56c0 3.535 2.865 6.4 6.4 6.4v0h305.408c3.535 0 6.4-2.865 6.4-6.4v0-258.56c0-3.535-2.865-6.4-6.4-6.4v0zM440.832 676.608h-11.776c-75.8 0.84-149.132 9.376-219.863 24.861l7.127-1.309c-2.895 0.653-5.026 3.203-5.026 6.251 0 0.507 0.059 1 0.17 1.473l-0.009-0.043c0.653 2.895 3.203 5.026 6.251 5.026 0.507 0 1-0.059 1.473-0.17l-0.043 0.009c62.833-14.011 135.281-22.453 209.554-23.29l0.622-0.006c3.499-0.041 7.632-0.065 11.77-0.065 78.525 0 155.063 8.509 228.741 24.655l-7.039-1.294c0.385 0.082 0.827 0.129 1.28 0.129 3.535 0 6.401-2.866 6.401-6.401 0-3.082-2.178-5.656-5.080-6.265l-0.042-0.007c-67.331-14.974-144.664-23.552-224-23.552-0.18 0-0.36 0-0.539 0h0.028zM417.536 243.2c-14.138 0-25.6 11.462-25.6 25.6s11.462 25.6 25.6 25.6c14.138 0 25.6-11.462 25.6-25.6v0c0-14.138-11.462-25.6-25.6-25.6v0zM417.536 283.392c-7.635 0-13.824-6.189-13.824-13.824s6.189-13.824 13.824-13.824c7.635 0 13.824 6.189 13.824 13.824v0c0.002 0.076 0.002 0.166 0.002 0.256 0 7.635-6.189 13.824-13.824 13.824-0.001 0-0.002 0-0.002 0v0zM417.536 152.576c-14.138 0-25.6 11.462-25.6 25.6s11.462 25.6 25.6 25.6c14.138 0 25.6-11.462 25.6-25.6v0c0-14.138-11.462-25.6-25.6-25.6v0zM417.536 192.768c-7.635 0-13.824-6.189-13.824-13.824s6.189-13.824 13.824-13.824c7.635 0 13.824 6.189 13.824 13.824v0c-0.418 7.297-6.438 13.056-13.803 13.056-0.008 0-0.015 0-0.023 0h0.001zM417.536 58.624c-14.138 0-25.6 11.462-25.6 25.6s11.462 25.6 25.6 25.6c14.138 0 25.6-11.462 25.6-25.6v0c0-14.138-11.462-25.6-25.6-25.6v0zM417.536 98.816c-7.635 0-13.824-6.189-13.824-13.824s6.189-13.824 13.824-13.824c7.635 0 13.824 6.189 13.824 13.824v0c0 7.635-6.189 13.824-13.824 13.824v0zM194.304 347.648h-2.304c-36.809 14.825-68.052 30.798-97.655 49.164l2.679-1.548c-35.778 22.132-66.831 45.694-95.461 71.861l0.485-0.437c-1.281 1.179-2.080 2.864-2.080 4.736 0 3.552 2.88 6.432 6.432 6.432 1.681 0 3.211-0.645 4.357-1.7l-0.005 0.004c27.539-25.178 57.923-48.232 90.308-68.37l2.62-1.518c26.35-16.469 56.92-32.099 88.834-45.115l4.094-1.477c2.311-1 3.899-3.26 3.899-5.891 0-3.465-2.754-6.287-6.193-6.397h-0.010zM722.176 309.248c-3.43 0.133-6.16 2.945-6.16 6.395 0 2.902 1.931 5.352 4.578 6.137l0.045 0.012c40.742 10.865 75.722 23.802 109.12 39.542l-3.904-1.654c44.368 20.839 82.515 44.144 117.785 71.030l-1.561-1.142c1.056 0.799 2.392 1.28 3.84 1.28 3.535 0 6.4-2.865 6.4-6.4 0-2.087-0.999-3.94-2.544-5.108l-0.016-0.012c-34.374-26.229-73.28-49.964-114.567-69.484l-3.961-1.684c-30.146-14.385-65.895-27.586-102.951-37.604l-4.569-1.052zM100.352 394.496c-1.662 0.234-3.094 1.077-4.087 2.293l-0.009 0.011c-22.335 19.159-39.261 44.016-48.571 72.33l-0.325 1.142c-4.777 14.654-7.531 31.517-7.531 49.024s2.754 34.37 7.853 50.18l-0.322-1.156c0.843 2.639 3.274 4.517 6.144 4.517 3.555 0 6.437-2.882 6.437-6.437 0-0.685-0.107-1.346-0.306-1.966l0.013 0.046c-4.488-13.508-7.077-29.058-7.077-45.213 0-45.067 20.148-85.429 51.928-112.569l0.205-0.171c1.375-1.181 2.241-2.922 2.241-4.864 0-3.512-2.829-6.364-6.333-6.4h-0.003zM53.504 371.2h-2.304c-2.483 0.918-4.221 3.265-4.221 6.018 0 0.78 0.14 1.528 0.395 2.219l-0.014-0.044c4.768 12.813 14.637 22.765 27.073 27.54l0.319 0.108c4.127 1.403 8.881 2.213 13.824 2.213s9.697-0.81 14.136-2.304l-0.312 0.091c2.639-0.843 4.517-3.274 4.517-6.144 0-3.555-2.882-6.437-6.437-6.437-0.685 0-1.346 0.107-1.966 0.306l0.046-0.013c-2.905 0.977-6.251 1.54-9.728 1.54s-6.823-0.564-9.95-1.605l0.222 0.064c-9.059-3.505-16.065-10.595-19.381-19.482l-0.075-0.23c-1.012-2.283-3.257-3.846-5.868-3.846-0.097 0-0.193 0.002-0.289 0.006h0.014zM860.928 363.52c-1.952 0.017-3.693 0.905-4.856 2.294l-0.008 0.010c-8.881 10.252-14.292 23.722-14.292 38.455 0 8.205 1.678 16.017 4.71 23.114l-0.146-0.384c5.575 11.178 14.422 20.025 25.276 25.453l0.324 0.147c0.822 0.411 1.791 0.652 2.816 0.652 3.541 0 6.412-2.871 6.412-6.412 0-2.516-1.449-4.693-3.558-5.743l-0.037-0.017c-9.014-4.357-16.123-11.466-20.367-20.222l-0.113-0.258c-2.191-5.182-3.464-11.207-3.464-17.529 0-11.646 4.32-22.282 11.445-30.395l-0.045 0.052c0.922-1.101 1.483-2.533 1.483-4.096 0-3.516-2.835-6.37-6.344-6.4h-0.003zM899.072 324.096c-28.087 0.338-53.873 9.911-74.533 25.817l0.293-0.217c-1.561 1.18-2.56 3.033-2.56 5.12 0 3.535 2.865 6.4 6.4 6.4 1.448 0 2.784-0.481 3.856-1.292l-0.016 0.012c18.305-13.864 41.458-22.208 66.56-22.208s48.255 8.344 66.838 22.409l-0.278-0.201c1.056 0.799 2.392 1.28 3.84 1.28 3.535 0 6.4-2.865 6.4-6.4 0-2.087-0.999-3.94-2.544-5.108l-0.016-0.012c-20.367-15.689-46.154-25.262-74.163-25.599l-0.077-0.001z" />
<glyph unicode="&#xe92f;" glyph-name="christmas-3" d="M334.080 619.776c0.152 0 0.332 0 0.512 0 177.721 0 321.792-144.071 321.792-321.792s-144.071-321.792-321.792-321.792c-177.721 0-321.792 144.071-321.792 321.791v0c0 0.076 0 0.166 0 0.256 0 177.489 143.811 321.39 321.266 321.536h0.014zM334.080 632.576c-0.076 0-0.166 0-0.256 0-184.79 0-334.592-149.802-334.592-334.592s149.802-334.592 334.592-334.592c184.79 0 334.592 149.802 334.592 334.592v0c0 184.7-149.656 334.446-334.322 334.592h-0.014zM240.384 605.696c-3.535 0-6.4 2.865-6.4 6.4v0 74.752c0 18.38 14.9 33.28 33.28 33.28v0h133.888c0.229 0.006 0.498 0.009 0.768 0.009 18.38 0 33.28-14.9 33.28-33.28 0-0.003 0-0.006 0-0.009v0.001-74.24c0-3.535-2.865-6.4-6.4-6.4s-6.4 2.865-6.4 6.4v0 74.24c0 11.311-9.169 20.48-20.48 20.48h-134.656c-11.311 0-20.48-9.169-20.48-20.48v0-74.752c0-3.535-2.865-6.4-6.4-6.4v0zM374.272 707.072h-80.384c-3.535 0-6.4 2.865-6.4 6.4v0 54.784c0 17.673 14.327 32 32 32v0h29.184c17.673 0 32-14.327 32-32v0-54.784c0-3.535-2.865-6.4-6.4-6.4v0zM300.288 719.872h67.584v48.384c0 10.604-8.596 19.2-19.2 19.2v0h-29.184c-10.604 0-19.2-8.596-19.2-19.2v0zM334.080 787.456c-3.535 0-6.4 2.865-6.4 6.4v0 134.144c0 3.535 2.865 6.4 6.4 6.4s6.4-2.865 6.4-6.4v0-134.144c0-3.535-2.865-6.4-6.4-6.4v0zM762.624 94.464c-0.13 0-0.284 0-0.439 0-52.021 0-100.475 15.272-141.123 41.577l1.018-0.617c-1.943 1.123-3.229 3.191-3.229 5.559 0 3.535 2.865 6.4 6.4 6.4 1.405 0 2.704-0.453 3.759-1.22l-0.018 0.013c37.888-24.529 84.201-39.111 133.92-39.111 137.426 0 248.832 111.406 248.832 248.832s-111.406 248.832-248.832 248.832c-74.212 0-140.837-32.488-186.427-84.017l-0.229-0.264c-1.168-1.697-3.1-2.795-5.288-2.795-3.535 0-6.4 2.865-6.4 6.4 0 1.931 0.855 3.663 2.208 4.836l0.008 0.007c48.087 53.826 117.704 87.55 195.198 87.55 144.354 0 261.376-117.022 261.376-261.376 0-144.038-116.51-260.864-260.428-261.374h-0.049zM688.384 598.784c-3.535 0-6.4 2.865-6.4 6.4v0 59.136c0 15.27 12.378 27.648 27.648 27.648v0h106.24c15.27 0 27.648-12.378 27.648-27.648v0-58.88c0-3.535-2.865-6.4-6.4-6.4s-6.4 2.865-6.4 6.4v0 58.88c0 8.2-6.648 14.848-14.848 14.848v0h-106.24c-8.2 0-14.848-6.648-14.848-14.848v0-59.136c0-3.535-2.865-6.4-6.4-6.4v0zM793.6 678.4h-62.72c-3.535 0-6.4 2.865-6.4 6.4v0 38.912c0.288 17.452 14.503 31.488 31.996 31.488 0.001 0 0.003 0 0.004 0h11.52c17.673 0 32-14.327 32-32v0-37.632c0.029-0.231 0.046-0.497 0.046-0.768 0-3.535-2.865-6.4-6.4-6.4-0.016 0-0.033 0-0.049 0h0.002zM736.256 691.2h51.2v32.512c0 0.001 0 0.001 0 0.002 0 10.604-8.596 19.2-19.2 19.2-0.090 0-0.18-0.001-0.27-0.002h-12.53c-10.604 0-19.2-8.596-19.2-19.2v0zM762.624 742.912c-3.535 0-6.4 2.865-6.4 6.4v0 44.544c0 3.535 2.865 6.4 6.4 6.4s6.4-2.865 6.4-6.4v0-44.544c0-3.535-2.865-6.4-6.4-6.4v0zM762.624 823.296c-3.535 0-6.4 2.865-6.4 6.4v0 98.304c0 3.535 2.865 6.4 6.4 6.4s6.4-2.865 6.4-6.4v0-98.304c0-3.535-2.865-6.4-6.4-6.4v0zM494.848 445.44c0-7.352-5.96-13.312-13.312-13.312s-13.312 5.96-13.312 13.312c0 7.352 5.96 13.312 13.312 13.312s13.312-5.96 13.312-13.312zM307.456 257.792c0-7.352-5.96-13.312-13.312-13.312s-13.312 5.96-13.312 13.312c0 7.352 5.96 13.312 13.312 13.312s13.312-5.96 13.312-13.312zM575.232 257.792c0-7.352-5.96-13.312-13.312-13.312s-13.312 5.96-13.312 13.312c0 7.352 5.96 13.312 13.312 13.312s13.312-5.96 13.312-13.312zM93.184 365.056c0-7.352-5.96-13.312-13.312-13.312s-13.312 5.96-13.312 13.312c0 7.352 5.96 13.312 13.312 13.312s13.312-5.96 13.312-13.312zM628.736 338.176c0-7.352-5.96-13.312-13.312-13.312s-13.312 5.96-13.312 13.312c0 7.352 5.96 13.312 13.312 13.312s13.312-5.96 13.312-13.312zM227.072 525.824c0-7.352-5.96-13.312-13.312-13.312s-13.312 5.96-13.312 13.312c0 7.352 5.96 13.312 13.312 13.312s13.312-5.96 13.312-13.312zM146.688 499.2c0-7.352-5.96-13.312-13.312-13.312s-13.312 5.96-13.312 13.312c0 7.352 5.96 13.312 13.312 13.312s13.312-5.96 13.312-13.312zM200.192 472.32c0-7.352-5.96-13.312-13.312-13.312s-13.312 5.96-13.312 13.312c0 7.352 5.96 13.312 13.312 13.312s13.312-5.96 13.312-13.312zM307.456 391.936c0-7.352-5.96-13.312-13.312-13.312s-13.312 5.96-13.312 13.312c0 7.352 5.96 13.312 13.312 13.312s13.312-5.96 13.312-13.312zM93.184 150.528c0-7.352-5.96-13.312-13.312-13.312s-13.312 5.96-13.312 13.312c0 7.352 5.96 13.312 13.312 13.312s13.312-5.96 13.312-13.312zM414.464 16.64c0-7.352-5.96-13.312-13.312-13.312s-13.312 5.96-13.312 13.312c0 7.352 5.96 13.312 13.312 13.312s13.312-5.96 13.312-13.312zM146.688 257.792c0-7.352-5.96-13.312-13.312-13.312s-13.312 5.96-13.312 13.312c0 7.352 5.96 13.312 13.312 13.312s13.312-5.96 13.312-13.312zM441.344 552.704c0-7.352-5.96-13.312-13.312-13.312s-13.312 5.96-13.312 13.312c0 7.352 5.96 13.312 13.312 13.312s13.312-5.96 13.312-13.312zM548.352 418.56c0-7.352-5.96-13.312-13.312-13.312s-13.312 5.96-13.312 13.312c0 7.352 5.96 13.312 13.312 13.312s13.312-5.96 13.312-13.312zM253.696 43.264c0-7.352-5.96-13.312-13.312-13.312s-13.312 5.96-13.312 13.312c0 7.352 5.96 13.312 13.312 13.312s13.312-5.96 13.312-13.312zM200.192 70.144c0-7.352-5.96-13.312-13.312-13.312s-13.312 5.96-13.312 13.312c0 7.352 5.96 13.312 13.312 13.312s13.312-5.96 13.312-13.312zM280.576 552.704c0-7.352-5.96-13.312-13.312-13.312s-13.312 5.96-13.312 13.312c0 7.352 5.96 13.312 13.312 13.312s13.312-5.96 13.312-13.312zM414.464 204.288c0-7.352-5.96-13.312-13.312-13.312s-13.312 5.96-13.312 13.312c0 7.352 5.96 13.312 13.312 13.312s13.312-5.96 13.312-13.312zM521.472 150.528c0-7.352-5.96-13.312-13.312-13.312s-13.312 5.96-13.312 13.312c0 7.352 5.96 13.312 13.312 13.312s13.312-5.96 13.312-13.312z" />
<glyph unicode="&#xe930;" glyph-name="christmas-4" d="M458.752 93.184h-412.416c-3.535 0-6.4 2.865-6.4 6.4v0 545.024c0 3.535 2.865 6.4 6.4 6.4v0h716.8c3.535 0 6.4-2.865 6.4-6.4v0-90.88c0-3.535-2.865-6.4-6.4-6.4s-6.4 2.865-6.4 6.4v0 84.48h-704v-532.224h406.016c3.535 0 6.4-2.865 6.4-6.4s-2.865-6.4-6.4-6.4v0zM802.56 638.208h-796.16c-3.535 0-6.4 2.865-6.4 6.4v0 146.176c0 3.535 2.865 6.4 6.4 6.4v0h796.16c3.535 0 6.4-2.865 6.4-6.4v0-146.176c0-3.535-2.865-6.4-6.4-6.4v0zM12.8 651.008h783.36v133.376h-783.36zM458.752 93.184h-133.888c-3.535 0-6.4 2.865-6.4 6.4v0 691.2c0 3.535 2.865 6.4 6.4 6.4v0h159.232c3.535 0 6.4-2.865 6.4-6.4v0-315.136c0-3.535-2.865-6.4-6.4-6.4s-6.4 2.865-6.4 6.4v0 308.736h-146.432v-678.4h128c3.535 0 6.4-2.865 6.4-6.4s-2.865-6.4-6.4-6.4v0zM625.152 786.432l-10.752 8.448c34.048 37.888 44.8 80.64 27.392 108.8-9.19 14.044-23.397 24.154-40.022 27.825l-0.426 0.079c-8.153 1.384-17.546 2.174-27.123 2.174-35.648 0-68.737-10.957-96.083-29.687l0.582 0.376c-37.632-23.296-62.208-76.8-76.8-115.712l-11.52 4.864c14.592 41.984 40.704 97.28 81.664 122.368 28.462 19.127 63.506 30.528 101.212 30.528 10.911 0 21.599-0.955 31.985-2.785l-1.101 0.161c20.824-4.26 38.223-16.467 49.228-33.244l0.18-0.292c20.48-33.024 9.472-81.92-28.416-123.904zM388.864 786.944c-16.746 37.807-43.107 68.776-76.031 90.655l-0.769 0.481c-18.88 10.681-41.462 16.975-65.514 16.975-11.831 0-23.307-1.523-34.241-4.383l0.939 0.209c-13.368-4.22-24.126-13.394-30.33-25.316l-0.134-0.284c-2.38-6.606-3.756-14.23-3.756-22.174 0-19.423 8.225-36.925 21.381-49.214l0.039-0.036-9.728-8.192c-15.144 14.437-24.56 34.765-24.56 57.293 0 10.046 1.873 19.655 5.288 28.496l-0.184-0.54c8.009 14.799 21.379 25.834 37.444 30.607l0.444 0.113c11.168 3.022 23.991 4.757 37.219 4.757 26.167 0 50.748-6.792 72.075-18.71l-0.75 0.385c36.215-22.716 64.62-54.906 82.138-93.125l0.55-1.339zM988.16-41.472h-529.408c-3.535 0-6.4 2.865-6.4 6.4v0 402.688c0 3.535 2.865 6.4 6.4 6.4v0h529.408c3.535 0 6.4-2.865 6.4-6.4v0-402.688c0-3.535-2.865-6.4-6.4-6.4v0zM465.152-28.672h516.608v389.888h-516.608zM1017.6 361.216h-588.8c-3.535 0-6.4 2.865-6.4 6.4v0 108.032c0 3.535 2.865 6.4 6.4 6.4v0h588.8c3.535 0 6.4-2.865 6.4-6.4v0-108.032c0-3.535-2.865-6.4-6.4-6.4v0zM435.2 374.016h576v95.232h-576zM782.336-41.472h-116.736c-3.535 0-6.4 2.865-6.4 6.4v0 510.72c0 3.535 2.865 6.4 6.4 6.4v0h117.76c3.535 0 6.4-2.865 6.4-6.4v0-510.72c0-0.025 0.001-0.054 0.001-0.083 0-3.535-2.865-6.4-6.4-6.4-0.362 0-0.717 0.030-1.062 0.088l0.037-0.005zM670.976-28.672h104.96v497.92h-104.96zM800.768 471.296l-11.52 5.888c6.668 11.394 10.606 25.088 10.606 39.702 0 6.532-0.787 12.88-2.27 18.955l0.113-0.545c-1.776 6.574-6.787 11.67-13.176 13.534l-0.136 0.034c-0.452 0.021-0.981 0.032-1.513 0.032-11.622 0-21.933-5.612-28.372-14.274l-0.067-0.094c-11.877-17.485-20.067-38.408-22.966-60.986l-0.074-0.71-12.544 2.56c3.006 25.662 12.15 48.729 25.915 68.312l-0.315-0.472c8.696 11.238 22.187 18.404 37.351 18.404 1.631 0 3.244-0.083 4.832-0.245l-0.2 0.016c11.068-2.73 19.683-11.090 22.73-21.796l0.054-0.22c1.972-7.084 3.105-15.219 3.105-23.619 0-16.332-4.284-31.663-11.79-44.932l0.237 0.455zM657.408 471.552c-4.94 9.257-7.841 20.246-7.841 31.912 0 5.386 0.618 10.627 1.788 15.657l-0.091-0.465c2.271 10.051 9.539 17.998 18.996 21.188l0.204 0.060c2.321 0.52 4.987 0.818 7.723 0.818 10.309 0 19.629-4.231 26.319-11.052l0.006-0.006c12.32-14.997 21.281-33.223 25.458-53.205l0.142-0.811-12.288-3.584c-3.829 18.44-11.807 34.597-22.933 48.057l0.149-0.185c-4.67 4.884-11.238 7.921-18.515 7.921-1.235 0-2.449-0.087-3.638-0.256l0.136 0.016c-5.319-2.074-9.267-6.614-10.476-12.177l-0.020-0.111c-0.755-3.458-1.187-7.43-1.187-11.502 0-9.655 2.43-18.743 6.711-26.685l-0.147 0.299zM935.424 438.784h-106.24c-3.535 0-6.4 2.865-6.4 6.4s2.865 6.4 6.4 6.4v0h106.24c3.535 0 6.4-2.865 6.4-6.4s-2.865-6.4-6.4-6.4v0zM988.416 438.784h-25.6c-3.535 0-6.4 2.865-6.4 6.4s2.865 6.4 6.4 6.4v0h25.6c3.535 0 6.4-2.865 6.4-6.4s-2.865-6.4-6.4-6.4v0zM165.632 731.136h-132.608c-3.535 0-6.4 2.865-6.4 6.4s2.865 6.4 6.4 6.4v0h132.608c3.535 0 6.4-2.865 6.4-6.4s-2.865-6.4-6.4-6.4v0zM245.248 731.136h-52.992c-3.535 0-6.4 2.865-6.4 6.4s2.865 6.4 6.4 6.4v0h52.992c3.535 0 6.4-2.865 6.4-6.4s-2.865-6.4-6.4-6.4v0zM192.256 252.672c-3.535 0-6.4 2.865-6.4 6.4v0 265.728c0 3.535 2.865 6.4 6.4 6.4s6.4-2.865 6.4-6.4v0-265.728c0-3.535-2.865-6.4-6.4-6.4v0zM192.256 172.8c-3.535 0-6.4 2.865-6.4 6.4v0 25.6c0 3.535 2.865 6.4 6.4 6.4s6.4-2.865 6.4-6.4v0-25.6c0-3.535-2.865-6.4-6.4-6.4v0zM882.176 279.296c-3.535 0-6.4 2.865-6.4 6.4v0 52.992c0 3.535 2.865 6.4 6.4 6.4s6.4-2.865 6.4-6.4v0-53.248c-0.141-3.423-2.95-6.144-6.395-6.144-0.002 0-0.004 0-0.005 0v0zM882.176 199.424c-3.535 0-6.4 2.865-6.4 6.4v0 25.6c0 3.535 2.865 6.4 6.4 6.4s6.4-2.865 6.4-6.4v0-25.6c0-3.535-2.865-6.4-6.4-6.4v0z" />
</font>
</defs>
</svg>
