<svg xmlns="http://www.w3.org/2000/svg" viewBox="0 0 46.14 46.13"><defs><style>.cls-1{fill:#e6e6e6;}</style></defs><title>viar</title><g id="Calque_2" data-name="Calque 2"><g id="maquettes"><path d="M32.18,11.56H14.07V22.32H32.18Zm-.72,10.09H14.79V12.23H31.46Z"/><path d="M42.85,32.84H35.13V31a2.22,2.22,0,0,0-2.22-2.22h0a4.18,4.18,0,0,0-4.06-3.14h0l-.77.07a57,57,0,0,1-10,0l-.69-.06a4.17,4.17,0,0,0-4,3.17A2.35,2.35,0,0,0,11.12,31v1.8H3.29l.26.5h7.57v.88a.36.36,0,0,0,.36.36H34.77a.36.36,0,0,0,.36-.36v-.88h7.46Zm-29.63-3v4.06H11.84V31a1.6,1.6,0,0,1,1.38-1.51Zm19.09,4.06H13.94v-1H32.31Zm0-2v.23H13.94V29.79a3.44,3.44,0,0,1,3.41-3.45l.66.06a57.55,57.55,0,0,0,10.11,0l.75-.07a3.45,3.45,0,0,1,3.44,3.45Zm2.1,2H33V29.49A1.5,1.5,0,0,1,34.41,31Z"/><path class="cls-1" d="M23.07,46.13A23.07,23.07,0,1,1,46.14,23.07,23.09,23.09,0,0,1,23.07,46.13ZM23.07,1A22.07,22.07,0,1,0,45.14,23.07,22.09,22.09,0,0,0,23.07,1Z"/></g></g></svg>